<?xml version="1.0" encoding="UTF-8" standalone="no"?>
<!-- Created with Inkscape (http://www.inkscape.org/) -->

<svg
   width="24in"
   height="11.69291in"
   viewBox="0 0 609.60001 296.99993"
   version="1.1"
   id="svg1093"
   inkscape:version="1.1 (c68e22c387, 2021-05-23)"
   sodipodi:docname="ConsolePage1.svg"
   xmlns:inkscape="http://www.inkscape.org/namespaces/inkscape"
   xmlns:sodipodi="http://sodipodi.sourceforge.net/DTD/sodipodi-0.dtd"
   xmlns="http://www.w3.org/2000/svg"
   xmlns:svg="http://www.w3.org/2000/svg">
  <sodipodi:namedview
     id="namedview1095"
     pagecolor="#ffffff"
     bordercolor="#666666"
     borderopacity="1.0"
     inkscape:pageshadow="2"
     inkscape:pageopacity="0.0"
     inkscape:pagecheckerboard="0"
     inkscape:document-units="mm"
     showgrid="false"
     units="in"
     inkscape:zoom="0.76953125"
     inkscape:cx="825.82741"
     inkscape:cy="562.03046"
     inkscape:window-width="2560"
     inkscape:window-height="1369"
     inkscape:window-x="-8"
     inkscape:window-y="-8"
     inkscape:window-maximized="1"
     inkscape:current-layer="layer1"
     height="11.69291in" />
  <defs
     id="defs1090" />
  <g
     inkscape:label="Layer 1"
     inkscape:groupmode="layer"
     id="layer1">
    <g
       id="p-1"
       style="fill:none;stroke:#00ff00;stroke-width:0.127;stroke-linecap:round;stroke-linejoin:round;stroke-miterlimit:4;stroke-dasharray:none;stroke-opacity:1"
       transform="rotate(90,149.306,149.36951)">
      <path
         d="M 13.1,285.612 H 20 c 0.1,0 0,-0.1 0,0 v 2.9 c 0,0.055 0.045,0.1 0.1,0.1 h 6 c 0.055,0 0.1,-0.045 0.1,-0.1 v -2.9 c 0,-0.1 -0.1,0 0,0 H 32 c 0.1,0 0,-0.1 0,0 v 2.9 c 0,0.055 0.045,0.1 0.1,0.1 h 6 c 0.055,0 0.1,-0.045 0.1,-0.1 v -2.9 c 0,-0.1 -0.1,0 0,0 H 44 c 0.1,0 0,-0.1 0,0 v 2.9 c 0,0.055 0.045,0.1 0.1,0.1 h 6 c 0.055,0 0.1,-0.045 0.1,-0.1 v -2.9 c 0,-0.1 -0.1,0 0,0 H 56 c 0.1,0 0,-0.1 0,0 v 2.9 c 0,0.055 0.045,0.1 0.1,0.1 h 6 c 0.055,0 0.1,-0.045 0.1,-0.1 v -2.9 c 0,-0.1 -0.1,0 0,0 H 68 c 0.1,0 0,-0.1 0,0 v 2.9 c 0,0.055 0.045,0.1 0.1,0.1 h 6 c 0.055,0 0.1,-0.045 0.1,-0.1 v -2.9 c 0,-0.1 -0.1,0 0,0 H 80 c 0.1,0 0,-0.1 0,0 v 2.9 c 0,0.055 0.045,0.1 0.1,0.1 h 6 c 0.055,0 0.1,-0.045 0.1,-0.1 v -2.9 c 0,-0.1 -0.1,0 0,0 H 92 c 0.1,0 0,-0.1 0,0 v 2.9 c 0,0.055 0.045,0.1 0.1,0.1 h 6 c 0.055,0 0.1,-0.045 0.1,-0.1 v -2.9 c 0,-0.1 -0.1,0 0,0 h 5.8 c 0.1,0 0,-0.1 0,0 v 2.9 c 0,0.055 0.045,0.1 0.1,0.1 h 6 c 0.055,0 0.1,-0.045 0.1,-0.1 v -2.9 c 0,-0.1 -0.1,0 0,0 h 5.8 c 0.1,0 0,-0.1 0,0 v 2.9 c 0,0.055 0.045,0.1 0.1,0.1 h 6 c 0.055,0 0.1,-0.045 0.1,-0.1 v -2.9 c 0,-0.1 -0.1,0 0,0 h 5.8 c 0.1,0 0,-0.1 0,0 v 2.9 c 0,0.055 0.045,0.1 0.1,0.1 h 6 c 0.055,0 0.1,-0.045 0.1,-0.1 v -2.9 c 0,-0.1 -0.1,0 0,0 h 5.8 c 0.1,0 0,-0.1 0,0 v 2.9 c 0,0.055 0.045,0.1 0.1,0.1 h 6 c 0.055,0 0.1,-0.045 0.1,-0.1 v -2.9 c 0,-0.1 -0.1,0 0,0 h 5.8 c 0.1,0 0,-0.1 0,0 v 2.9 c 0,0.055 0.045,0.1 0.1,0.1 h 6 c 0.055,0 0.1,-0.045 0.1,-0.1 v -2.9 c 0,-0.1 -0.1,0 0,0 h 5.8 c 0.1,0 0,-0.1 0,0 v 2.9 c 0,0.055 0.045,0.1 0.1,0.1 h 6 c 0.055,0 0.1,-0.045 0.1,-0.1 v -2.9 c 0,-0.1 -0.1,0 0,0 h 5.8 c 0.1,0 0,-0.1 0,0 v 2.9 c 0,0.055 0.045,0.1 0.1,0.1 h 6 c 0.055,0 0.1,-0.045 0.1,-0.1 v -2.9 c 0,-0.1 -0.1,0 0,0 h 5.8 c 0.1,0 0,-0.1 0,0 v 2.9 c 0,0.055 0.045,0.1 0.1,0.1 h 6 c 0.055,0 0.1,-0.045 0.1,-0.1 v -2.9 c 0,-0.1 -0.1,0 0,0 h 5.8 c 0.1,0 0,-0.1 0,0 v 2.9 c 0,0.055 0.045,0.1 0.1,0.1 h 6 c 0.055,0 0.1,-0.045 0.1,-0.1 v -2.9 c 0,-0.1 -0.1,0 0,0 h 5.8 c 0.1,0 0,-0.1 0,0 v 2.9 c 0,0.055 0.045,0.1 0.1,0.1 h 6 c 0.055,0 0.1,-0.045 0.1,-0.1 v -2.9 c 0,-0.1 -0.1,0 0,0 h 5.8 c 0.1,0 0,-0.1 0,0 v 2.9 c 0,0.055 0.045,0.1 0.1,0.1 h 6 c 0.055,0 0.1,-0.045 0.1,-0.1 v -2.9 c 0,-0.1 -0.1,0 0,0 h 5.8 c 0.1,0 0,-0.1 0,0 v 2.9 c 0,0.055 0.045,0.1 0.1,0.1 h 6 c 0.055,0 0.1,-0.045 0.1,-0.1 v -2.9 c 0,-0.1 -0.1,0 0,0 h 5.8 c 0.1,0 0,-0.1 0,0 v 2.9 c 0,0.055 0.045,0.1 0.1,0.1 h 6 c 0.055,0 0.1,-0.045 0.1,-0.1 v -2.9 c 0,-0.1 -0.1,0 0,0 h 6.9 c 0.055,0 0.1,-0.045 0.1,-0.1 v -6.9 c 0,-0.1 -0.1,0 0,0 h 2.9 c 0.055,0 0.1,-0.045 0.1,-0.1 v -6 c 0,-0.055 -0.045,-0.1 -0.1,-0.1 h -2.9 c -0.1,0 0,0.1 0,0 v -5.8 c 0,-0.1 -0.1,0 0,0 h 2.9 c 0.055,0 0.1,-0.045 0.1,-0.1 v -6 c 0,-0.055 -0.045,-0.1 -0.1,-0.1 h -2.9 c -0.1,0 0,0.1 0,0 v -5.8 c 0,-0.1 -0.1,0 0,0 h 2.9 c 0.055,0 0.1,-0.045 0.1,-0.1 v -6 c 0,-0.055 -0.045,-0.1 -0.1,-0.1 h -2.9 c -0.1,0 0,0.1 0,0 v -5.8 c 0,-0.1 -0.1,0 0,0 h 2.9 c 0.055,0 0.1,-0.045 0.1,-0.1 v -6 c 0,-0.055 -0.045,-0.1 -0.1,-0.1 h -2.9 c -0.1,0 0,0.1 0,0 v -5.8 c 0,-0.1 -0.1,0 0,0 h 2.9 c 0.055,0 0.1,-0.045 0.1,-0.1 v -6 c 0,-0.055 -0.045,-0.1 -0.1,-0.1 h -2.9 c -0.1,0 0,0.1 0,0 v -5.8 c 0,-0.1 -0.1,0 0,0 h 2.9 c 0.055,0 0.1,-0.045 0.1,-0.1 v -6 c 0,-0.055 -0.045,-0.1 -0.1,-0.1 h -2.9 c -0.1,0 0,0.1 0,0 v -5.8 c 0,-0.1 -0.1,0 0,0 h 2.9 c 0.055,0 0.1,-0.045 0.1,-0.1 v -6 c 0,-0.055 -0.045,-0.1 -0.1,-0.1 h -2.9 c -0.1,0 0,0.1 0,0 v -5.8 c 0,-0.1 -0.1,0 0,0 h 2.9 c 0.055,0 0.1,-0.045 0.1,-0.1 v -6 c 0,-0.055 -0.045,-0.1 -0.1,-0.1 h -2.9 c -0.1,0 0,0.1 0,0 v -5.8 c 0,-0.1 -0.1,0 0,0 h 2.9 c 0.055,0 0.1,-0.045 0.1,-0.1 v -6 c 0,-0.055 -0.045,-0.1 -0.1,-0.1 h -2.9 c -0.1,0 0,0.1 0,0 v -5.8 c 0,-0.1 -0.1,0 0,0 h 2.9 c 0.055,0 0.1,-0.045 0.1,-0.1 v -6 c 0,-0.055 -0.045,-0.1 -0.1,-0.1 h -2.9 c -0.1,0 0,0.1 0,0 v -5.8 c 0,-0.1 -0.1,0 0,0 h 2.9 c 0.055,0 0.1,-0.045 0.1,-0.1 v -6 c 0,-0.055 -0.045,-0.1 -0.1,-0.1 h -2.9 c -0.1,0 0,0.1 0,0 v -5.8 c 0,-0.1 -0.1,0 0,0 h 2.9 c 0.055,0 0.1,-0.045 0.1,-0.1 v -6 c 0,-0.055 -0.045,-0.1 -0.1,-0.1 h -2.9 c -0.1,0 0,0.1 0,0 v -5.8 c 0,-0.1 -0.1,0 0,0 h 2.9 c 0.055,0 0.1,-0.045 0.1,-0.1 v -6 c 0,-0.055 -0.045,-0.1 -0.1,-0.1 h -2.9 c -0.1,0 0,0.1 0,0 v -5.8 c 0,-0.1 -0.1,0 0,0 h 2.9 c 0.055,0 0.1,-0.045 0.1,-0.1 v -6 c 0,-0.055 -0.045,-0.1 -0.1,-0.1 h -2.9 c -0.1,0 0,0.1 0,0 v -5.8 c 0,-0.1 -0.1,0 0,0 h 2.9 c 0.055,0 0.1,-0.045 0.1,-0.1 v -6 c 0,-0.055 -0.045,-0.1 -0.1,-0.1 h -2.9 c -0.1,0 0,0.1 0,0 v -5.8 c 0,-0.1 -0.1,0 0,0 h 2.9 c 0.055,0 0.1,-0.045 0.1,-0.1 v -6 c 0,-0.055 -0.045,-0.1 -0.1,-0.1 h -2.9 c -0.1,0 0,0.1 0,0 v -6.9 c 0,-0.044 -0.029,-0.083 -0.071,-0.096 l -6.092,-1.827 c -0.095,-0.029 -0.028,0.096 0,0 l 0.834,-2.778 c 0.015,-0.053 -0.015,-0.109 -0.067,-0.124 l -5.747,-1.724 c -0.053,-0.016 -0.109,0.014 -0.125,0.067 l -0.833,2.777 c -0.029,0.096 0.096,0.029 0,0 l -5.556,-1.666 c -0.095,-0.029 -0.028,0.095 0,0 l 0.834,-2.778 c 0.016,-0.053 -0.014,-0.109 -0.067,-0.125 l -5.747,-1.724 c -0.053,-0.015 -0.109,0.015 -0.125,0.067 l -0.833,2.778 c -0.029,0.096 0.096,0.029 0,0 l -5.556,-1.666 c -0.095,-0.029 -0.028,0.095 0,0 l 0.834,-2.778 c 0.016,-0.053 -0.014,-0.109 -0.067,-0.125 l -5.747,-1.724 c -0.053,-0.016 -0.109,0.014 -0.125,0.067 l -0.833,2.778 c -0.029,0.096 0.096,0.029 0,0 l -5.555,-1.667 c -0.096,-0.028 -0.029,0.096 0,0 l 0.833,-2.777 c 0.016,-0.053 -0.014,-0.109 -0.067,-0.125 l -5.747,-1.724 c -0.053,-0.016 -0.109,0.014 -0.125,0.067 l -0.833,2.778 c -0.029,0.096 0.096,0.029 0,0 l -5.555,-1.667 c -0.096,-0.028 -0.029,0.096 0,0 l 0.833,-2.777 c 0.016,-0.053 -0.014,-0.109 -0.067,-0.125 l -5.747,-1.724 c -0.053,-0.016 -0.109,0.014 -0.125,0.067 l -0.833,2.778 c -0.029,0.096 0.096,0.028 0,0 l -5.555,-1.667 c -0.096,-0.029 -0.029,0.096 0,0 l 0.833,-2.778 c 0.016,-0.052 -0.014,-0.108 -0.067,-0.124 l -5.747,-1.724 c -0.053,-0.016 -0.109,0.014 -0.125,0.067 l -0.833,2.778 c -0.029,0.095 0.096,0.028 0,0 L 186.074,62.9 c -0.096,-0.029 -0.029,0.096 0,0 l 0.833,-2.778 c 0.016,-0.053 -0.014,-0.108 -0.067,-0.124 l -5.747,-1.724 c -0.053,-0.016 -0.109,0.014 -0.125,0.067 l -0.833,2.778 c -0.029,0.095 0.096,0.028 0,0 l -5.555,-1.667 c -0.096,-0.029 -0.029,0.096 0,0 l 0.833,-2.778 c 0.016,-0.053 -0.014,-0.108 -0.067,-0.124 l -5.747,-1.724 c -0.053,-0.016 -0.109,0.014 -0.124,0.067 l -0.834,2.777 c -0.028,0.096 0.096,0.029 0,0 l -5.555,-1.666 c -0.096,-0.029 -0.029,0.096 0,0 l 0.833,-2.778 c 0.016,-0.053 -0.014,-0.109 -0.067,-0.124 l -5.747,-1.724 c -0.053,-0.016 -0.109,0.014 -0.124,0.067 l -0.834,2.777 c -0.028,0.096 0.096,0.029 0,0 l -5.555,-1.666 c -0.096,-0.029 -0.029,0.095 0,0 l 0.833,-2.778 c 0.016,-0.053 -0.014,-0.109 -0.067,-0.125 l -5.747,-1.724 c -0.053,-0.015 -0.108,0.015 -0.124,0.067 l -0.834,2.778 c -0.028,0.096 0.096,0.029 0,0 l -5.555,-1.666 c -0.096,-0.029 -0.029,0.095 0,0 l 0.833,-2.778 c 0.016,-0.053 -0.014,-0.109 -0.067,-0.125 l -5.747,-1.724 c -0.053,-0.016 -0.108,0.014 -0.124,0.067 l -0.834,2.778 c -0.028,0.096 0.096,0.029 0,0 l -5.555,-1.667 c -0.096,-0.028 -0.029,0.096 0,0 l 0.833,-2.777 c 0.016,-0.053 -0.014,-0.109 -0.067,-0.125 l -5.747,-1.724 c -0.053,-0.016 -0.108,0.014 -0.124,0.067 l -0.833,2.778 c -0.029,0.096 0.095,0.029 0,0 l -5.556,-1.667 c -0.096,-0.028 -0.029,0.096 0,0 l 0.833,-2.777 c 0.016,-0.053 -0.014,-0.109 -0.067,-0.125 l -5.747,-1.724 c -0.052,-0.016 -0.108,0.014 -0.124,0.067 l -0.833,2.778 c -0.029,0.096 0.095,0.028 0,0 l -5.556,-1.667 c -0.096,-0.029 -0.029,0.096 0,0 l 0.834,-2.778 c 0.015,-0.052 -0.015,-0.108 -0.068,-0.124 l -5.747,-1.724 c -0.052,-0.016 -0.108,0.014 -0.124,0.067 l -0.833,2.778 c -0.029,0.095 0.095,0.028 0,0 l -5.556,-1.667 c -0.096,-0.029 -0.028,0.096 0,0 l 0.834,-2.778 c 0.015,-0.053 -0.015,-0.108 -0.067,-0.124 l -5.747,-1.724 c -0.053,-0.016 -0.109,0.014 -0.125,0.067 l -0.833,2.778 c -0.029,0.095 0.096,0.028 0,0 l -5.556,-1.667 c -0.095,-0.029 -0.028,0.096 0,0 l 0.834,-2.778 c 0.016,-0.053 -0.015,-0.108 -0.067,-0.124 l -5.747,-1.724 c -0.053,-0.016 -0.109,0.014 -0.125,0.067 l -0.833,2.777 c -0.029,0.096 0.096,0.029 0,0 l -5.556,-1.666 c -0.095,-0.029 -0.028,0.096 0,0 l 0.834,-2.778 c 0.016,-0.053 -0.014,-0.109 -0.067,-0.124 l -5.747,-1.724 c -0.053,-0.016 -0.109,0.014 -0.125,0.067 l -0.833,2.777 c -0.029,0.096 0.096,0.029 0,0 L 59.64,24.971 c -0.095,-0.029 -0.028,0.095 0,0 l 0.834,-2.778 C 60.49,22.14 60.46,22.084 60.407,22.068 L 54.66,20.344 c -0.053,-0.015 -0.109,0.015 -0.125,0.067 l -0.833,2.778 c -0.029,0.096 0.096,0.029 0,0 l -5.555,-1.666 c -0.096,-0.029 -0.029,0.095 0,0 l 0.833,-2.778 c 0.016,-0.053 -0.014,-0.109 -0.067,-0.125 l -5.747,-1.724 c -0.053,-0.016 -0.109,0.014 -0.125,0.067 l -0.833,2.778 c -0.029,0.096 0.096,0.029 0,0 l -5.555,-1.667 c -0.096,-0.028 -0.029,0.096 0,0 l 0.833,-2.777 c 0.016,-0.053 -0.014,-0.109 -0.067,-0.125 l -5.747,-1.724 c -0.053,-0.016 -0.109,0.014 -0.125,0.067 l -0.833,2.778 c -0.029,0.096 0.096,0.029 0,0 l -5.555,-1.667 c -0.096,-0.028 -0.029,0.096 0,0 l 0.833,-2.777 C 26.008,11.796 25.978,11.74 25.925,11.724 L 20.178,10 c -0.053,-0.016 -0.109,0.014 -0.125,0.067 l -0.833,2.778 c -0.029,0.096 0.096,0.028 0,0 l -6.091,-1.828 c -0.02,-0.006 -0.042,-0.005 -0.061,0.002 -0.02,0.006 -0.037,0.019 -0.049,0.036 C 13.007,11.072 13,11.092 13,11.113 v 2.1 c 0,0.1 0.1,0 0,0 h -2.9 c -0.055,0 -0.1,0.044 -0.1,0.1 v 6 c 0,0.055 0.045,0.1 0.1,0.1 H 13 c 0.1,0 0,-0.1 0,0 v 5.8 c 0,0.1 0.1,0 0,0 h -2.9 c -0.055,0 -0.1,0.044 -0.1,0.1 v 6 c 0,0.055 0.045,0.1 0.1,0.1 H 13 c 0.1,0 0,-0.1 0,0 v 5.8 c 0,0.1 0.1,0 0,0 h -2.9 c -0.055,0 -0.1,0.044 -0.1,0.1 v 6 c 0,0.055 0.045,0.1 0.1,0.1 H 13 c 0.1,0 0,-0.1 0,0 v 5.8 c 0,0.1 0.1,0 0,0 h -2.9 c -0.055,0 -0.1,0.044 -0.1,0.1 v 6 c 0,0.055 0.045,0.1 0.1,0.1 H 13 c 0.1,0 0,-0.1 0,0 v 5.8 c 0,0.1 0.1,0 0,0 h -2.9 c -0.055,0 -0.1,0.044 -0.1,0.1 v 6 c 0,0.055 0.045,0.1 0.1,0.1 H 13 c 0.1,0 0,-0.1 0,0 v 5.8 c 0,0.1 0.1,0 0,0 h -2.9 c -0.055,0 -0.1,0.044 -0.1,0.1 v 6 c 0,0.055 0.045,0.1 0.1,0.1 H 13 c 0.1,0 0,-0.1 0,0 v 5.8 c 0,0.1 0.1,0 0,0 h -2.9 c -0.055,0 -0.1,0.044 -0.1,0.1 v 6 c 0,0.055 0.045,0.1 0.1,0.1 H 13 c 0.1,0 0,-0.1 0,0 v 5.8 c 0,0.1 0.1,0 0,0 h -2.9 c -0.055,0 -0.1,0.044 -0.1,0.1 v 6 c 0,0.055 0.045,0.1 0.1,0.1 H 13 c 0.1,0 0,-0.1 0,0 v 5.8 c 0,0.1 0.1,0 0,0 h -2.9 c -0.055,0 -0.1,0.044 -0.1,0.1 v 6 c 0,0.055 0.045,0.1 0.1,0.1 H 13 c 0.1,0 0,-0.1 0,0 v 5.8 c 0,0.1 0.1,0 0,0 h -2.9 c -0.055,0 -0.1,0.044 -0.1,0.1 v 6 c 0,0.055 0.045,0.1 0.1,0.1 H 13 c 0.1,0 0,-0.1 0,0 v 5.8 c 0,0.1 0.1,0 0,0 h -2.9 c -0.055,0 -0.1,0.044 -0.1,0.1 v 6 c 0,0.055 0.045,0.1 0.1,0.1 H 13 c 0.1,0 0,-0.1 0,0 v 5.8 c 0,0.1 0.1,0 0,0 h -2.9 c -0.055,0 -0.1,0.044 -0.1,0.1 v 6 c 0,0.055 0.045,0.1 0.1,0.1 H 13 c 0.1,0 0,-0.1 0,0 v 5.8 c 0,0.1 0.1,0 0,0 h -2.9 c -0.055,0 -0.1,0.044 -0.1,0.1 v 6 c 0,0.055 0.045,0.1 0.1,0.1 H 13 c 0.1,0 0,-0.1 0,0 v 5.8 c 0,0.1 0.1,0 0,0 h -2.9 c -0.055,0 -0.1,0.044 -0.1,0.1 v 6 c 0,0.055 0.045,0.1 0.1,0.1 H 13 c 0.1,0 0,-0.1 0,0 v 5.8 c 0,0.1 0.1,0 0,0 h -2.9 c -0.055,0 -0.1,0.044 -0.1,0.1 v 6 c 0,0.055 0.045,0.1 0.1,0.1 H 13 c 0.1,0 0,-0.1 0,0 v 5.8 c 0,0.1 0.1,0 0,0 h -2.9 c -0.055,0 -0.1,0.044 -0.1,0.1 v 6 c 0,0.055 0.045,0.1 0.1,0.1 H 13 c 0.1,0 0,-0.1 0,0 v 5.8 c 0,0.1 0.1,0 0,0 h -2.9 c -0.055,0 -0.1,0.044 -0.1,0.1 v 6 c 0,0.055 0.045,0.1 0.1,0.1 H 13 c 0.1,0 0,-0.1 0,0 v 5.8 c 0,0.1 0.1,0 0,0 h -2.9 c -0.055,0 -0.1,0.044 -0.1,0.1 v 6 c 0,0.055 0.045,0.1 0.1,0.1 H 13 c 0.1,0 0,-0.1 0,0 v 5.8 c 0,0.1 0.1,0 0,0 h -2.9 c -0.055,0 -0.1,0.044 -0.1,0.1 v 6 c 0,0.055 0.045,0.1 0.1,0.1 H 13 c 0.1,0 0,-0.1 0,0 v 5.8 c 0,0.1 0.1,0 0,0 h -2.9 c -0.055,0 -0.1,0.044 -0.1,0.1 v 6 c 0,0.055 0.045,0.1 0.1,0.1 H 13 c 0.1,0 0,-0.1 0,0 v 5.8 c 0,0.1 0.1,0 0,0 h -2.9 c -0.055,0 -0.1,0.044 -0.1,0.1 v 6 c 0,0.055 0.045,0.1 0.1,0.1 H 13 c 0.1,0 0,-0.1 0,0 v 5.8 c 0,0.1 0.1,0 0,0 h -2.9 c -0.055,0 -0.1,0.044 -0.1,0.1 v 6 c 0,0.055 0.045,0.1 0.1,0.1 H 13 c 0.1,0 0,-0.1 0,0 v 5.8 c 0,0.1 0.1,0 0,0 h -2.9 c -0.055,0 -0.1,0.044 -0.1,0.1 v 6 c 0,0.055 0.045,0.1 0.1,0.1 H 13 c 0.1,0 0,-0.1 0,0 v 2.099 c 0,0.055 0.045,0.1 0.1,0.1 z"
         stroke="#000000"
         stroke-width="0.2"
         id="path1224"
         style="stroke:#00ff00;stroke-width:0.127;stroke-miterlimit:4;stroke-dasharray:none;stroke-opacity:1" />
    </g>
    <g
       id="p-2"
       style="fill:none;stroke:#00ff00;stroke-width:0.127;stroke-linecap:round;stroke-linejoin:round;stroke-miterlimit:4;stroke-dasharray:none;stroke-opacity:1"
       transform="rotate(-90,381.54236,162.23303)">
      <path
         d="m 282.61189,285.612 h 6.9 c 0.1,0 0,-0.1 0,0 v 2.9 c 0,0.055 0.045,0.1 0.1,0.1 h 6 c 0.055,0 0.1,-0.045 0.1,-0.1 v -2.9 c 0,-0.1 -0.1,0 0,0 h 5.8 c 0.1,0 0,-0.1 0,0 v 2.9 c 0,0.055 0.045,0.1 0.1,0.1 h 6 c 0.055,0 0.1,-0.045 0.1,-0.1 v -2.9 c 0,-0.1 -0.1,0 0,0 h 5.8 c 0.1,0 0,-0.1 0,0 v 2.9 c 0,0.055 0.045,0.1 0.1,0.1 h 6 c 0.055,0 0.1,-0.045 0.1,-0.1 v -2.9 c 0,-0.1 -0.1,0 0,0 h 5.8 c 0.1,0 0,-0.1 0,0 v 2.9 c 0,0.055 0.045,0.1 0.1,0.1 h 6 c 0.055,0 0.1,-0.045 0.1,-0.1 v -2.9 c 0,-0.1 -0.1,0 0,0 h 5.8 c 0.1,0 0,-0.1 0,0 v 2.9 c 0,0.055 0.045,0.1 0.1,0.1 h 6 c 0.055,0 0.1,-0.045 0.1,-0.1 v -2.9 c 0,-0.1 -0.1,0 0,0 h 5.8 c 0.1,0 0,-0.1 0,0 v 2.9 c 0,0.055 0.045,0.1 0.1,0.1 h 6 c 0.055,0 0.1,-0.045 0.1,-0.1 v -2.9 c 0,-0.1 -0.1,0 0,0 h 5.8 c 0.1,0 0,-0.1 0,0 v 2.9 c 0,0.055 0.045,0.1 0.1,0.1 h 6 c 0.055,0 0.1,-0.045 0.1,-0.1 v -2.9 c 0,-0.1 -0.1,0 0,0 h 5.8 c 0.1,0 0,-0.1 0,0 v 2.9 c 0,0.055 0.045,0.1 0.1,0.1 h 6 c 0.055,0 0.1,-0.045 0.1,-0.1 v -2.9 c 0,-0.1 -0.1,0 0,0 h 5.8 c 0.1,0 0,-0.1 0,0 v 2.9 c 0,0.055 0.045,0.1 0.1,0.1 h 6 c 0.055,0 0.1,-0.045 0.1,-0.1 v -2.9 c 0,-0.1 -0.1,0 0,0 h 5.8 c 0.1,0 0,-0.1 0,0 v 2.9 c 0,0.055 0.045,0.1 0.1,0.1 h 6 c 0.055,0 0.1,-0.045 0.1,-0.1 v -2.9 c 0,-0.1 -0.1,0 0,0 h 5.8 c 0.1,0 0,-0.1 0,0 v 2.9 c 0,0.055 0.045,0.1 0.1,0.1 h 6 c 0.055,0 0.1,-0.045 0.1,-0.1 v -2.9 c 0,-0.1 -0.1,0 0,0 h 5.8 c 0.1,0 0,-0.1 0,0 v 2.9 c 0,0.055 0.045,0.1 0.1,0.1 h 6 c 0.055,0 0.1,-0.045 0.1,-0.1 v -2.9 c 0,-0.1 -0.1,0 0,0 h 5.8 c 0.1,0 0,-0.1 0,0 v 2.9 c 0,0.055 0.045,0.1 0.1,0.1 h 6 c 0.055,0 0.1,-0.045 0.1,-0.1 v -2.9 c 0,-0.1 -0.1,0 0,0 h 5.8 c 0.1,0 0,-0.1 0,0 v 2.9 c 0,0.055 0.045,0.1 0.1,0.1 h 6 c 0.055,0 0.1,-0.045 0.1,-0.1 v -2.9 c 0,-0.1 -0.1,0 0,0 h 5.8 c 0.1,0 0,-0.1 0,0 v 2.9 c 0,0.055 0.045,0.1 0.1,0.1 h 6 c 0.055,0 0.1,-0.045 0.1,-0.1 v -2.9 c 0,-0.1 -0.1,0 0,0 h 5.8 c 0.1,0 0,-0.1 0,0 v 2.9 c 0,0.055 0.045,0.1 0.1,0.1 h 6 c 0.055,0 0.1,-0.045 0.1,-0.1 v -2.9 c 0,-0.1 -0.1,0 0,0 h 5.8 c 0.1,0 0,-0.1 0,0 v 2.9 c 0,0.055 0.045,0.1 0.1,0.1 h 6 c 0.055,0 0.1,-0.045 0.1,-0.1 v -2.9 c 0,-0.1 -0.1,0 0,0 h 5.8 c 0.1,0 0,-0.1 0,0 v 2.9 c 0,0.055 0.045,0.1 0.1,0.1 h 6 c 0.055,0 0.1,-0.045 0.1,-0.1 v -2.9 c 0,-0.1 -0.1,0 0,0 h 5.8 c 0.1,0 0,-0.1 0,0 v 2.9 c 0,0.055 0.045,0.1 0.1,0.1 h 6 c 0.055,0 0.1,-0.045 0.1,-0.1 v -2.9 c 0,-0.1 -0.1,0 0,0 h 5.8 c 0.1,0 0,-0.1 0,0 v 2.9 c 0,0.055 0.045,0.1 0.1,0.1 h 6 c 0.055,0 0.1,-0.045 0.1,-0.1 v -2.9 c 0,-0.1 -0.1,0 0,0 h 6.9 c 0.055,0 0.1,-0.045 0.1,-0.1 v -6.9 c 0,-0.1 -0.1,0 0,0 h 2.9 c 0.055,0 0.1,-0.045 0.1,-0.1 v -6 c 0,-0.055 -0.045,-0.1 -0.1,-0.1 h -2.9 c -0.1,0 0,0.1 0,0 v -5.8 c 0,-0.1 -0.1,0 0,0 h 2.9 c 0.055,0 0.1,-0.045 0.1,-0.1 v -6 c 0,-0.055 -0.045,-0.1 -0.1,-0.1 h -2.9 c -0.1,0 0,0.1 0,0 v -5.8 c 0,-0.1 -0.1,0 0,0 h 2.9 c 0.055,0 0.1,-0.045 0.1,-0.1 v -6 c 0,-0.055 -0.045,-0.1 -0.1,-0.1 h -2.9 c -0.1,0 0,0.1 0,0 v -5.8 c 0,-0.1 -0.1,0 0,0 h 2.9 c 0.055,0 0.1,-0.045 0.1,-0.1 v -6 c 0,-0.055 -0.045,-0.1 -0.1,-0.1 h -2.9 c -0.1,0 0,0.1 0,0 v -5.8 c 0,-0.1 -0.1,0 0,0 h 2.9 c 0.055,0 0.1,-0.045 0.1,-0.1 v -6 c 0,-0.055 -0.045,-0.1 -0.1,-0.1 h -2.9 c -0.1,0 0,0.1 0,0 v -5.8 c 0,-0.1 -0.1,0 0,0 h 2.9 c 0.055,0 0.1,-0.045 0.1,-0.1 v -6 c 0,-0.055 -0.045,-0.1 -0.1,-0.1 h -2.9 c -0.1,0 0,0.1 0,0 v -5.8 c 0,-0.1 -0.1,0 0,0 h 2.9 c 0.055,0 0.1,-0.045 0.1,-0.1 v -6 c 0,-0.055 -0.045,-0.1 -0.1,-0.1 h -2.9 c -0.1,0 0,0.1 0,0 v -5.8 c 0,-0.1 -0.1,0 0,0 h 2.9 c 0.055,0 0.1,-0.045 0.1,-0.1 v -6 c 0,-0.055 -0.045,-0.1 -0.1,-0.1 h -2.9 c -0.1,0 0,0.1 0,0 v -5.8 c 0,-0.1 -0.1,0 0,0 h 2.9 c 0.055,0 0.1,-0.045 0.1,-0.1 v -6 c 0,-0.055 -0.045,-0.1 -0.1,-0.1 h -2.9 c -0.1,0 0,0.1 0,0 v -5.8 c 0,-0.1 -0.1,0 0,0 h 2.9 c 0.055,0 0.1,-0.045 0.1,-0.1 v -6 c 0,-0.055 -0.045,-0.1 -0.1,-0.1 h -2.9 c -0.1,0 0,0.1 0,0 v -5.8 c 0,-0.1 -0.1,0 0,0 h 2.9 c 0.055,0 0.1,-0.045 0.1,-0.1 v -6 c 0,-0.055 -0.045,-0.1 -0.1,-0.1 h -2.9 c -0.1,0 0,0.1 0,0 v -5.8 c 0,-0.1 -0.1,0 0,0 h 2.9 c 0.055,0 0.1,-0.045 0.1,-0.1 v -6 c 0,-0.055 -0.045,-0.1 -0.1,-0.1 h -2.9 c -0.1,0 0,0.1 0,0 v -5.8 c 0,-0.1 -0.1,0 0,0 h 2.9 c 0.055,0 0.1,-0.045 0.1,-0.1 v -6 c 0,-0.055 -0.045,-0.1 -0.1,-0.1 h -2.9 c -0.1,0 0,0.1 0,0 v -5.8 c 0,-0.1 -0.1,0 0,0 h 2.9 c 0.055,0 0.1,-0.045 0.1,-0.1 v -6 c 0,-0.055 -0.045,-0.1 -0.1,-0.1 h -2.9 c -0.1,0 0,0.1 0,0 v -5.8 c 0,-0.1 -0.1,0 0,0 h 2.9 c 0.055,0 0.1,-0.045 0.1,-0.1 v -6 c 0,-0.055 -0.045,-0.1 -0.1,-0.1 h -2.9 c -0.1,0 0,0.1 0,0 v -5.8 c 0,-0.1 -0.1,0 0,0 h 2.9 c 0.055,0 0.1,-0.045 0.1,-0.1 v -6 c 0,-0.055 -0.045,-0.1 -0.1,-0.1 h -2.9 c -0.1,0 0,0.1 0,0 v -6.9 c 0,-0.044 -0.029,-0.083 -0.071,-0.096 l -6.092,-1.827 c -0.095,-0.029 -0.028,0.096 0,0 l 0.834,-2.778 c 0.015,-0.053 -0.015,-0.109 -0.067,-0.124 l -5.747,-1.724 c -0.053,-0.016 -0.109,0.014 -0.125,0.067 l -0.833,2.777 c -0.029,0.096 0.096,0.029 0,0 l -5.556,-1.666 c -0.095,-0.029 -0.028,0.095 0,0 l 0.834,-2.778 c 0.016,-0.053 -0.014,-0.109 -0.067,-0.125 l -5.747,-1.724 c -0.053,-0.015 -0.109,0.015 -0.125,0.067 l -0.833,2.778 c -0.029,0.096 0.096,0.029 0,0 l -5.556,-1.666 c -0.095,-0.029 -0.028,0.095 0,0 l 0.834,-2.778 c 0.016,-0.053 -0.014,-0.109 -0.067,-0.125 l -5.747,-1.724 c -0.053,-0.016 -0.109,0.014 -0.125,0.067 l -0.833,2.778 c -0.029,0.096 0.096,0.029 0,0 l -5.555,-1.667 c -0.096,-0.028 -0.029,0.096 0,0 l 0.833,-2.777 c 0.016,-0.053 -0.014,-0.109 -0.067,-0.125 l -5.747,-1.724 c -0.053,-0.016 -0.109,0.014 -0.125,0.067 l -0.833,2.778 c -0.029,0.096 0.096,0.029 0,0 l -5.555,-1.667 c -0.096,-0.028 -0.029,0.096 0,0 l 0.833,-2.777 c 0.016,-0.053 -0.014,-0.109 -0.067,-0.125 l -5.747,-1.724 c -0.053,-0.016 -0.109,0.014 -0.125,0.067 l -0.833,2.778 c -0.029,0.096 0.096,0.028 0,0 l -5.555,-1.667 c -0.096,-0.029 -0.029,0.096 0,0 l 0.833,-2.778 c 0.016,-0.052 -0.014,-0.108 -0.067,-0.124 l -5.747,-1.724 c -0.053,-0.016 -0.109,0.014 -0.125,0.067 l -0.833,2.778 c -0.029,0.095 0.096,0.028 0,0 l -5.555,-1.667 c -0.096,-0.029 -0.029,0.096 0,0 l 0.833,-2.778 c 0.016,-0.053 -0.014,-0.108 -0.067,-0.124 l -5.747,-1.724 c -0.053,-0.016 -0.109,0.014 -0.125,0.067 l -0.833,2.778 c -0.029,0.095 0.096,0.028 0,0 l -5.555,-1.667 c -0.096,-0.029 -0.029,0.096 0,0 l 0.833,-2.778 c 0.016,-0.053 -0.014,-0.108 -0.067,-0.124 l -5.747,-1.724 c -0.053,-0.016 -0.109,0.014 -0.124,0.067 l -0.834,2.777 c -0.028,0.096 0.096,0.029 0,0 l -5.555,-1.666 c -0.096,-0.029 -0.029,0.096 0,0 l 0.833,-2.778 c 0.016,-0.053 -0.014,-0.109 -0.067,-0.124 l -5.747,-1.724 c -0.053,-0.016 -0.109,0.014 -0.124,0.067 l -0.834,2.777 c -0.028,0.096 0.096,0.029 0,0 l -5.555,-1.666 c -0.096,-0.029 -0.029,0.095 0,0 l 0.833,-2.778 c 0.016,-0.053 -0.014,-0.109 -0.067,-0.125 l -5.747,-1.724 c -0.053,-0.015 -0.108,0.015 -0.124,0.067 l -0.834,2.778 c -0.028,0.096 0.096,0.029 0,0 l -5.555,-1.666 c -0.096,-0.029 -0.029,0.095 0,0 l 0.833,-2.778 c 0.016,-0.053 -0.014,-0.109 -0.067,-0.125 l -5.747,-1.724 c -0.053,-0.016 -0.108,0.014 -0.124,0.067 l -0.834,2.778 c -0.028,0.096 0.096,0.029 0,0 l -5.555,-1.667 c -0.096,-0.028 -0.029,0.096 0,0 l 0.833,-2.777 c 0.016,-0.053 -0.014,-0.109 -0.067,-0.125 l -5.747,-1.724 c -0.053,-0.016 -0.108,0.014 -0.124,0.067 l -0.833,2.778 c -0.029,0.096 0.095,0.029 0,0 l -5.556,-1.667 c -0.096,-0.028 -0.029,0.096 0,0 l 0.833,-2.777 c 0.016,-0.053 -0.014,-0.109 -0.067,-0.125 l -5.747,-1.724 c -0.052,-0.016 -0.108,0.014 -0.124,0.067 l -0.833,2.778 c -0.029,0.096 0.095,0.028 0,0 l -5.556,-1.667 c -0.096,-0.029 -0.029,0.096 0,0 l 0.834,-2.778 c 0.015,-0.052 -0.015,-0.108 -0.068,-0.124 l -5.747,-1.724 c -0.052,-0.016 -0.108,0.014 -0.124,0.067 l -0.833,2.778 c -0.029,0.095 0.095,0.028 0,0 l -5.556,-1.667 c -0.096,-0.029 -0.028,0.096 0,0 l 0.834,-2.778 c 0.015,-0.053 -0.015,-0.108 -0.067,-0.124 l -5.747,-1.724 c -0.053,-0.016 -0.109,0.014 -0.125,0.067 l -0.833,2.778 c -0.029,0.095 0.096,0.028 0,0 l -5.556,-1.667 c -0.095,-0.029 -0.028,0.096 0,0 l 0.834,-2.778 c 0.016,-0.053 -0.015,-0.108 -0.067,-0.124 l -5.747,-1.724 c -0.053,-0.016 -0.109,0.014 -0.125,0.067 l -0.833,2.777 c -0.029,0.096 0.096,0.029 0,0 l -5.556,-1.666 c -0.095,-0.029 -0.028,0.096 0,0 l 0.834,-2.778 c 0.016,-0.053 -0.014,-0.109 -0.067,-0.124 l -5.747,-1.724 c -0.053,-0.016 -0.109,0.014 -0.125,0.067 l -0.833,2.777 c -0.029,0.096 0.096,0.029 0,0 l -5.556,-1.666 c -0.095,-0.029 -0.028,0.095 0,0 l 0.834,-2.778 c 0.016,-0.053 -0.014,-0.109 -0.067,-0.125 l -5.747,-1.724 c -0.053,-0.015 -0.109,0.015 -0.125,0.067 l -0.833,2.778 c -0.029,0.096 0.096,0.029 0,0 l -5.555,-1.666 c -0.096,-0.029 -0.029,0.095 0,0 l 0.833,-2.778 c 0.016,-0.053 -0.014,-0.109 -0.067,-0.125 l -5.747,-1.724 c -0.053,-0.016 -0.109,0.014 -0.125,0.067 l -0.833,2.778 c -0.029,0.096 0.096,0.029 0,0 l -5.555,-1.667 c -0.096,-0.028 -0.029,0.096 0,0 l 0.833,-2.777 c 0.016,-0.053 -0.014,-0.109 -0.067,-0.125 l -5.747,-1.724 c -0.053,-0.016 -0.109,0.014 -0.125,0.067 l -0.833,2.778 c -0.029,0.096 0.096,0.029 0,0 l -5.555,-1.667 c -0.096,-0.028 -0.029,0.096 0,0 l 0.833,-2.777 c 0.016,-0.053 -0.014,-0.109 -0.067,-0.125 L 289.68989,10 c -0.053,-0.016 -0.109,0.014 -0.125,0.067 l -0.833,2.778 c -0.029,0.096 0.096,0.028 0,0 l -6.091,-1.828 c -0.02,-0.006 -0.042,-0.005 -0.061,0.002 -0.02,0.006 -0.037,0.019 -0.049,0.036 -0.012,0.017 -0.019,0.037 -0.019,0.058 v 2.1 c 0,0.1 0.1,0 0,0 h -2.9 c -0.055,0 -0.1,0.044 -0.1,0.1 v 6 c 0,0.055 0.045,0.1 0.1,0.1 h 2.9 c 0.1,0 0,-0.1 0,0 v 5.8 c 0,0.1 0.1,0 0,0 h -2.9 c -0.055,0 -0.1,0.044 -0.1,0.1 v 6 c 0,0.055 0.045,0.1 0.1,0.1 h 2.9 c 0.1,0 0,-0.1 0,0 v 5.8 c 0,0.1 0.1,0 0,0 h -2.9 c -0.055,0 -0.1,0.044 -0.1,0.1 v 6 c 0,0.055 0.045,0.1 0.1,0.1 h 2.9 c 0.1,0 0,-0.1 0,0 v 5.8 c 0,0.1 0.1,0 0,0 h -2.9 c -0.055,0 -0.1,0.044 -0.1,0.1 v 6 c 0,0.055 0.045,0.1 0.1,0.1 h 2.9 c 0.1,0 0,-0.1 0,0 v 5.8 c 0,0.1 0.1,0 0,0 h -2.9 c -0.055,0 -0.1,0.044 -0.1,0.1 v 6 c 0,0.055 0.045,0.1 0.1,0.1 h 2.9 c 0.1,0 0,-0.1 0,0 v 5.8 c 0,0.1 0.1,0 0,0 h -2.9 c -0.055,0 -0.1,0.044 -0.1,0.1 v 6 c 0,0.055 0.045,0.1 0.1,0.1 h 2.9 c 0.1,0 0,-0.1 0,0 v 5.8 c 0,0.1 0.1,0 0,0 h -2.9 c -0.055,0 -0.1,0.044 -0.1,0.1 v 6 c 0,0.055 0.045,0.1 0.1,0.1 h 2.9 c 0.1,0 0,-0.1 0,0 v 5.8 c 0,0.1 0.1,0 0,0 h -2.9 c -0.055,0 -0.1,0.044 -0.1,0.1 v 6 c 0,0.055 0.045,0.1 0.1,0.1 h 2.9 c 0.1,0 0,-0.1 0,0 v 5.8 c 0,0.1 0.1,0 0,0 h -2.9 c -0.055,0 -0.1,0.044 -0.1,0.1 v 6 c 0,0.055 0.045,0.1 0.1,0.1 h 2.9 c 0.1,0 0,-0.1 0,0 v 5.8 c 0,0.1 0.1,0 0,0 h -2.9 c -0.055,0 -0.1,0.044 -0.1,0.1 v 6 c 0,0.055 0.045,0.1 0.1,0.1 h 2.9 c 0.1,0 0,-0.1 0,0 v 5.8 c 0,0.1 0.1,0 0,0 h -2.9 c -0.055,0 -0.1,0.044 -0.1,0.1 v 6 c 0,0.055 0.045,0.1 0.1,0.1 h 2.9 c 0.1,0 0,-0.1 0,0 v 5.8 c 0,0.1 0.1,0 0,0 h -2.9 c -0.055,0 -0.1,0.044 -0.1,0.1 v 6 c 0,0.055 0.045,0.1 0.1,0.1 h 2.9 c 0.1,0 0,-0.1 0,0 v 5.8 c 0,0.1 0.1,0 0,0 h -2.9 c -0.055,0 -0.1,0.044 -0.1,0.1 v 6 c 0,0.055 0.045,0.1 0.1,0.1 h 2.9 c 0.1,0 0,-0.1 0,0 v 5.8 c 0,0.1 0.1,0 0,0 h -2.9 c -0.055,0 -0.1,0.044 -0.1,0.1 v 6 c 0,0.055 0.045,0.1 0.1,0.1 h 2.9 c 0.1,0 0,-0.1 0,0 v 5.8 c 0,0.1 0.1,0 0,0 h -2.9 c -0.055,0 -0.1,0.044 -0.1,0.1 v 6 c 0,0.055 0.045,0.1 0.1,0.1 h 2.9 c 0.1,0 0,-0.1 0,0 v 5.8 c 0,0.1 0.1,0 0,0 h -2.9 c -0.055,0 -0.1,0.044 -0.1,0.1 v 6 c 0,0.055 0.045,0.1 0.1,0.1 h 2.9 c 0.1,0 0,-0.1 0,0 v 5.8 c 0,0.1 0.1,0 0,0 h -2.9 c -0.055,0 -0.1,0.044 -0.1,0.1 v 6 c 0,0.055 0.045,0.1 0.1,0.1 h 2.9 c 0.1,0 0,-0.1 0,0 v 5.8 c 0,0.1 0.1,0 0,0 h -2.9 c -0.055,0 -0.1,0.044 -0.1,0.1 v 6 c 0,0.055 0.045,0.1 0.1,0.1 h 2.9 c 0.1,0 0,-0.1 0,0 v 5.8 c 0,0.1 0.1,0 0,0 h -2.9 c -0.055,0 -0.1,0.044 -0.1,0.1 v 6 c 0,0.055 0.045,0.1 0.1,0.1 h 2.9 c 0.1,0 0,-0.1 0,0 v 5.8 c 0,0.1 0.1,0 0,0 h -2.9 c -0.055,0 -0.1,0.044 -0.1,0.1 v 6 c 0,0.055 0.045,0.1 0.1,0.1 h 2.9 c 0.1,0 0,-0.1 0,0 v 5.8 c 0,0.1 0.1,0 0,0 h -2.9 c -0.055,0 -0.1,0.044 -0.1,0.1 v 6 c 0,0.055 0.045,0.1 0.1,0.1 h 2.9 c 0.1,0 0,-0.1 0,0 v 5.8 c 0,0.1 0.1,0 0,0 h -2.9 c -0.055,0 -0.1,0.044 -0.1,0.1 v 6 c 0,0.055 0.045,0.1 0.1,0.1 h 2.9 c 0.1,0 0,-0.1 0,0 v 5.8 c 0,0.1 0.1,0 0,0 h -2.9 c -0.055,0 -0.1,0.044 -0.1,0.1 v 6 c 0,0.055 0.045,0.1 0.1,0.1 h 2.9 c 0.1,0 0,-0.1 0,0 v 2.099 c 0,0.055 0.045,0.1 0.1,0.1 z"
         stroke="#000000"
         stroke-width="0.2"
         id="path1227"
         style="stroke:#00ff00;stroke-width:0.127;stroke-miterlimit:4;stroke-dasharray:none;stroke-opacity:1" />
    </g>
    <circle
       style="fill:none;stroke:#ff0000;stroke-width:0.135434;stroke-miterlimit:4;stroke-dasharray:none;stroke-opacity:1"
       id="path1924"
       cx="137"
       cy="137.1635"
       r="41.432281" />
    <circle
       style="fill:none;stroke:#ff0000;stroke-width:0.135434;stroke-miterlimit:4;stroke-dasharray:none;stroke-opacity:1"
       id="path1924-1"
       cx="370.98499"
       cy="137.1635"
       r="41.432281" />
  </g>
</svg>
