<?xml version="1.0" encoding="UTF-8" standalone="no"?>
<!-- Created with Inkscape (http://www.inkscape.org/) -->

<svg
   width="18in"
   height="36in"
   viewBox="0 0 457.20001 914.40003"
   version="1.1"
   id="svg5"
   sodipodi:docname="Matrix1.svg"
   inkscape:version="1.1 (c68e22c387, 2021-05-23)"
   xmlns:inkscape="http://www.inkscape.org/namespaces/inkscape"
   xmlns:sodipodi="http://sodipodi.sourceforge.net/DTD/sodipodi-0.dtd"
   xmlns="http://www.w3.org/2000/svg"
   xmlns:svg="http://www.w3.org/2000/svg">
  <sodipodi:namedview
     id="namedview7"
     pagecolor="#ffffff"
     bordercolor="#666666"
     borderopacity="1.0"
     inkscape:pageshadow="2"
     inkscape:pageopacity="0.0"
     inkscape:pagecheckerboard="0"
     inkscape:document-units="in"
     showgrid="false"
     units="in"
     inkscape:zoom="0.77771465"
     inkscape:cx="892.35814"
     inkscape:cy="365.1725"
     inkscape:window-width="2103"
     inkscape:window-height="1360"
     inkscape:window-x="448"
     inkscape:window-y="0"
     inkscape:window-maximized="0"
     inkscape:current-layer="g24114" />
  <defs
     id="defs2" />
  <g
     inkscape:label="Layer 1"
     inkscape:groupmode="layer"
     id="layer1">
    <g
       id="g24114">
      <path
         d="m 73.05155,722.19249 h -2.91 v -2.82 h 5.82 v 2.82 z"
         stroke="#0000ff"
         stroke-width="0.18"
         id="path5248"
         style="fill:none;stroke:#ff0000;stroke-width:0.127;stroke-linecap:round;stroke-linejoin:round;stroke-miterlimit:4;stroke-dasharray:none;stroke-opacity:1" />
      <path
         d="m 85.05155,722.19249 h -2.91 v -2.82 h 5.82 v 2.82 z"
         stroke="#0000ff"
         stroke-width="0.18"
         id="path5250"
         style="fill:none;stroke:#ff0000;stroke-width:0.127;stroke-linecap:round;stroke-linejoin:round;stroke-miterlimit:4;stroke-dasharray:none;stroke-opacity:1" />
      <path
         d="m 97.05155,722.19249 h -2.91 v -2.82 h 5.82 v 2.82 z"
         stroke="#0000ff"
         stroke-width="0.18"
         id="path5252"
         style="fill:none;stroke:#ff0000;stroke-width:0.127;stroke-linecap:round;stroke-linejoin:round;stroke-miterlimit:4;stroke-dasharray:none;stroke-opacity:1" />
      <path
         d="m 109.05155,722.19249 h -2.91 v -2.82 h 5.82 v 2.82 z"
         stroke="#0000ff"
         stroke-width="0.18"
         id="path5254"
         style="fill:none;stroke:#ff0000;stroke-width:0.127;stroke-linecap:round;stroke-linejoin:round;stroke-miterlimit:4;stroke-dasharray:none;stroke-opacity:1" />
      <path
         d="m 121.05155,722.19249 h -2.91 v -2.82 h 5.82 v 2.82 z"
         stroke="#0000ff"
         stroke-width="0.18"
         id="path5256"
         style="fill:none;stroke:#ff0000;stroke-width:0.127;stroke-linecap:round;stroke-linejoin:round;stroke-miterlimit:4;stroke-dasharray:none;stroke-opacity:1" />
      <path
         d="m 133.05155,722.19249 h -2.91 v -2.82 h 5.82 v 2.82 z"
         stroke="#0000ff"
         stroke-width="0.18"
         id="path5258"
         style="fill:none;stroke:#ff0000;stroke-width:0.127;stroke-linecap:round;stroke-linejoin:round;stroke-miterlimit:4;stroke-dasharray:none;stroke-opacity:1" />
      <path
         d="m 145.05155,722.19249 h -2.91 v -2.82 h 5.82 v 2.82 z"
         stroke="#0000ff"
         stroke-width="0.18"
         id="path5260"
         style="fill:none;stroke:#ff0000;stroke-width:0.127;stroke-linecap:round;stroke-linejoin:round;stroke-miterlimit:4;stroke-dasharray:none;stroke-opacity:1" />
      <path
         d="m 157.05155,722.19249 h -2.91 v -2.82 h 5.82 v 2.82 z"
         stroke="#0000ff"
         stroke-width="0.18"
         id="path5262"
         style="fill:none;stroke:#ff0000;stroke-width:0.127;stroke-linecap:round;stroke-linejoin:round;stroke-miterlimit:4;stroke-dasharray:none;stroke-opacity:1" />
      <path
         d="m 169.05155,722.19249 h -2.91 v -2.82 h 5.82 v 2.82 z"
         stroke="#0000ff"
         stroke-width="0.18"
         id="path5264"
         style="fill:none;stroke:#ff0000;stroke-width:0.127;stroke-linecap:round;stroke-linejoin:round;stroke-miterlimit:4;stroke-dasharray:none;stroke-opacity:1" />
      <path
         d="m 181.05155,722.19249 h -2.91 v -2.82 h 5.82 v 2.82 z"
         stroke="#0000ff"
         stroke-width="0.18"
         id="path5266"
         style="fill:none;stroke:#ff0000;stroke-width:0.127;stroke-linecap:round;stroke-linejoin:round;stroke-miterlimit:4;stroke-dasharray:none;stroke-opacity:1" />
      <path
         d="m 193.05155,722.19249 h -2.91 v -2.82 h 5.82 v 2.82 z"
         stroke="#0000ff"
         stroke-width="0.18"
         id="path5268"
         style="fill:none;stroke:#ff0000;stroke-width:0.127;stroke-linecap:round;stroke-linejoin:round;stroke-miterlimit:4;stroke-dasharray:none;stroke-opacity:1" />
      <path
         d="m 205.05155,722.19249 h -2.91 v -2.82 h 5.82 v 2.82 z"
         stroke="#0000ff"
         stroke-width="0.18"
         id="path5270"
         style="fill:none;stroke:#ff0000;stroke-width:0.127;stroke-linecap:round;stroke-linejoin:round;stroke-miterlimit:4;stroke-dasharray:none;stroke-opacity:1" />
      <path
         d="m 217.05155,722.19249 h -2.91 v -2.82 h 5.82 v 2.82 z"
         stroke="#0000ff"
         stroke-width="0.18"
         id="path5272"
         style="fill:none;stroke:#ff0000;stroke-width:0.127;stroke-linecap:round;stroke-linejoin:round;stroke-miterlimit:4;stroke-dasharray:none;stroke-opacity:1" />
      <path
         d="m 229.05155,722.19249 h -2.91 v -2.82 h 5.82 v 2.82 z"
         stroke="#0000ff"
         stroke-width="0.18"
         id="path5274"
         style="fill:none;stroke:#ff0000;stroke-width:0.127;stroke-linecap:round;stroke-linejoin:round;stroke-miterlimit:4;stroke-dasharray:none;stroke-opacity:1" />
      <path
         d="m 61.05155,753.17249 h 9 c 0.05,0 0.09,-0.04 0.09,-0.09 v -2.91 h 5.82 v 2.91 c 0,0.05 0.04,0.09 0.09,0.09 h 6 c 0.05,0 0.09,-0.04 0.09,-0.09 v -2.91 h 5.82 v 2.91 c 0,0.05 0.04,0.09 0.09,0.09 h 6 c 0.05,0 0.09,-0.04 0.09,-0.09 v -2.91 h 5.82 v 2.91 c 0,0.05 0.04,0.09 0.09,0.09 h 6 c 0.05,0 0.09,-0.04 0.09,-0.09 v -2.91 h 5.82 v 2.91 c 0,0.05 0.04,0.09 0.09,0.09 h 6 c 0.05,0 0.09,-0.04 0.09,-0.09 v -2.91 h 5.82 v 2.91 c 0,0.05 0.04,0.09 0.09,0.09 h 6 c 0.05,0 0.09,-0.04 0.09,-0.09 v -2.91 h 5.82 v 2.91 c 0,0.05 0.04,0.09 0.09,0.09 h 6 c 0.05,0 0.09,-0.04 0.09,-0.09 v -2.91 h 5.82 v 2.91 c 0,0.05 0.04,0.09 0.09,0.09 h 6 c 0.05,0 0.09,-0.04 0.09,-0.09 v -2.91 h 5.82 v 2.91 c 0,0.05 0.04,0.09 0.09,0.09 h 6 c 0.05,0 0.09,-0.04 0.09,-0.09 v -2.91 h 5.82 v 2.91 c 0,0.05 0.04,0.09 0.09,0.09 h 6 c 0.05,0 0.09,-0.04 0.09,-0.09 v -2.91 h 5.82 v 2.91 c 0,0.05 0.04,0.09 0.09,0.09 h 6 c 0.05,0 0.09,-0.04 0.09,-0.09 v -2.91 h 5.82 v 2.91 c 0,0.05 0.04,0.09 0.09,0.09 h 6 c 0.05,0 0.09,-0.04 0.09,-0.09 v -2.91 h 5.82 v 2.91 c 0,0.05 0.04,0.09 0.09,0.09 h 6 c 0.05,0 0.09,-0.04 0.09,-0.09 v -2.91 h 5.82 v 2.91 c 0,0.05 0.04,0.09 0.09,0.09 h 6 c 0.05,0 0.09,-0.04 0.09,-0.09 v -2.91 h 5.82 v 2.91 c 0,0.05 0.04,0.09 0.09,0.09 h 9 3 c 0.05,0 0.09,-0.04 0.09,-0.09 v -3 -11 c 0,-0.05 -0.04,-0.09 -0.09,-0.09 h -2.91 v -5.82 h 2.91 c 0.05,0 0.09,-0.04 0.09,-0.09 v -6 c 0,-0.05 -0.04,-0.09 -0.09,-0.09 h -2.91 v -5.82 h 2.91 c 0.05,0 0.09,-0.04 0.09,-0.09 v -11 -3 c 0,-0.05 -0.04,-0.09 -0.09,-0.09 h -3 -9 c -0.05,0 -0.09,0.04 -0.09,0.09 v 2.91 h -5.82 v -2.91 c 0,-0.05 -0.04,-0.09 -0.09,-0.09 h -6 c -0.05,0 -0.09,0.04 -0.09,0.09 v 2.91 h -5.82 v -2.91 c 0,-0.05 -0.04,-0.09 -0.09,-0.09 h -6 c -0.05,0 -0.09,0.04 -0.09,0.09 v 2.91 h -5.82 v -2.91 c 0,-0.05 -0.04,-0.09 -0.09,-0.09 h -6 c -0.05,0 -0.09,0.04 -0.09,0.09 v 2.91 h -5.82 v -2.91 c 0,-0.05 -0.04,-0.09 -0.09,-0.09 h -6 c -0.05,0 -0.09,0.04 -0.09,0.09 v 2.91 h -5.82 v -2.91 c 0,-0.05 -0.04,-0.09 -0.09,-0.09 h -6 c -0.05,0 -0.09,0.04 -0.09,0.09 v 2.91 h -5.82 v -2.91 c 0,-0.05 -0.04,-0.09 -0.09,-0.09 h -6 c -0.05,0 -0.09,0.04 -0.09,0.09 v 2.91 h -5.82 v -2.91 c 0,-0.05 -0.04,-0.09 -0.09,-0.09 h -6 c -0.05,0 -0.09,0.04 -0.09,0.09 v 2.91 h -5.82 v -2.91 c 0,-0.05 -0.04,-0.09 -0.09,-0.09 h -6 c -0.05,0 -0.09,0.04 -0.09,0.09 v 2.91 h -5.82 v -2.91 c 0,-0.05 -0.04,-0.09 -0.09,-0.09 h -6 c -0.05,0 -0.09,0.04 -0.09,0.09 v 2.91 h -5.82 v -2.91 c 0,-0.05 -0.04,-0.09 -0.09,-0.09 h -6 c -0.05,0 -0.09,0.04 -0.09,0.09 v 2.91 h -5.82 v -2.91 c 0,-0.05 -0.04,-0.09 -0.09,-0.09 h -6 c -0.05,0 -0.09,0.04 -0.09,0.09 v 2.91 h -5.82 v -2.91 c 0,-0.05 -0.04,-0.09 -0.09,-0.09 h -6 c -0.05,0 -0.09,0.04 -0.09,0.09 v 2.91 h -5.82 v -2.91 c 0,-0.05 -0.04,-0.09 -0.09,-0.09 h -6 c -0.05,0 -0.09,0.04 -0.09,0.09 v 2.91 h -5.82 v -2.91 c 0,-0.05 -0.04,-0.09 -0.09,-0.09 h -9 -3 c -0.05,0 -0.09,0.04 -0.09,0.09 v 3 11 c 0,0.05 0.04,0.09 0.09,0.09 h 2.91 v 5.82 h -2.91 c -0.05,0 -0.09,0.04 -0.09,0.09 v 6 c 0,0.05 0.04,0.09 0.09,0.09 h 2.91 v 5.82 h -2.91 c -0.05,0 -0.09,0.04 -0.09,0.09 v 11 3 c 0,0.05 0.04,0.09 0.09,0.09 z"
         stroke="#000000"
         stroke-width="0.18"
         id="path5276"
         style="fill:none;stroke:#00ff00;stroke-width:0.127;stroke-linecap:round;stroke-linejoin:round;stroke-miterlimit:4;stroke-dasharray:none;stroke-opacity:1" />
      <path
         d="m 73.05155,780.70796 h -2.91 v -2.82 h 5.82 v 2.82 z"
         stroke="#0000ff"
         stroke-width="0.18"
         id="path5248-8"
         style="fill:none;stroke:#ff0000;stroke-width:0.127;stroke-linecap:round;stroke-linejoin:round;stroke-miterlimit:4;stroke-dasharray:none;stroke-opacity:1" />
      <path
         d="m 85.05155,780.70796 h -2.91 v -2.82 h 5.82 v 2.82 z"
         stroke="#0000ff"
         stroke-width="0.18"
         id="path5250-6"
         style="fill:none;stroke:#ff0000;stroke-width:0.127;stroke-linecap:round;stroke-linejoin:round;stroke-miterlimit:4;stroke-dasharray:none;stroke-opacity:1" />
      <path
         d="m 97.05155,780.70796 h -2.91 v -2.82 h 5.82 v 2.82 z"
         stroke="#0000ff"
         stroke-width="0.18"
         id="path5252-9"
         style="fill:none;stroke:#ff0000;stroke-width:0.127;stroke-linecap:round;stroke-linejoin:round;stroke-miterlimit:4;stroke-dasharray:none;stroke-opacity:1" />
      <path
         d="m 109.05155,780.70796 h -2.91 v -2.82 h 5.82 v 2.82 z"
         stroke="#0000ff"
         stroke-width="0.18"
         id="path5254-7"
         style="fill:none;stroke:#ff0000;stroke-width:0.127;stroke-linecap:round;stroke-linejoin:round;stroke-miterlimit:4;stroke-dasharray:none;stroke-opacity:1" />
      <path
         d="m 121.05155,780.70796 h -2.91 v -2.82 h 5.82 v 2.82 z"
         stroke="#0000ff"
         stroke-width="0.18"
         id="path5256-2"
         style="fill:none;stroke:#ff0000;stroke-width:0.127;stroke-linecap:round;stroke-linejoin:round;stroke-miterlimit:4;stroke-dasharray:none;stroke-opacity:1" />
      <path
         d="m 133.05155,780.70796 h -2.91 v -2.82 h 5.82 v 2.82 z"
         stroke="#0000ff"
         stroke-width="0.18"
         id="path5258-5"
         style="fill:none;stroke:#ff0000;stroke-width:0.127;stroke-linecap:round;stroke-linejoin:round;stroke-miterlimit:4;stroke-dasharray:none;stroke-opacity:1" />
      <path
         d="m 145.05155,780.70796 h -2.91 v -2.82 h 5.82 v 2.82 z"
         stroke="#0000ff"
         stroke-width="0.18"
         id="path5260-8"
         style="fill:none;stroke:#ff0000;stroke-width:0.127;stroke-linecap:round;stroke-linejoin:round;stroke-miterlimit:4;stroke-dasharray:none;stroke-opacity:1" />
      <path
         d="m 157.05155,780.70796 h -2.91 v -2.82 h 5.82 v 2.82 z"
         stroke="#0000ff"
         stroke-width="0.18"
         id="path5262-3"
         style="fill:none;stroke:#ff0000;stroke-width:0.127;stroke-linecap:round;stroke-linejoin:round;stroke-miterlimit:4;stroke-dasharray:none;stroke-opacity:1" />
      <path
         d="m 169.05155,780.70796 h -2.91 v -2.82 h 5.82 v 2.82 z"
         stroke="#0000ff"
         stroke-width="0.18"
         id="path5264-9"
         style="fill:none;stroke:#ff0000;stroke-width:0.127;stroke-linecap:round;stroke-linejoin:round;stroke-miterlimit:4;stroke-dasharray:none;stroke-opacity:1" />
      <path
         d="m 181.05155,780.70796 h -2.91 v -2.82 h 5.82 v 2.82 z"
         stroke="#0000ff"
         stroke-width="0.18"
         id="path5266-6"
         style="fill:none;stroke:#ff0000;stroke-width:0.127;stroke-linecap:round;stroke-linejoin:round;stroke-miterlimit:4;stroke-dasharray:none;stroke-opacity:1" />
      <path
         d="m 193.05155,780.70796 h -2.91 v -2.82 h 5.82 v 2.82 z"
         stroke="#0000ff"
         stroke-width="0.18"
         id="path5268-9"
         style="fill:none;stroke:#ff0000;stroke-width:0.127;stroke-linecap:round;stroke-linejoin:round;stroke-miterlimit:4;stroke-dasharray:none;stroke-opacity:1" />
      <path
         d="m 205.05155,780.70796 h -2.91 v -2.82 h 5.82 v 2.82 z"
         stroke="#0000ff"
         stroke-width="0.18"
         id="path5270-8"
         style="fill:none;stroke:#ff0000;stroke-width:0.127;stroke-linecap:round;stroke-linejoin:round;stroke-miterlimit:4;stroke-dasharray:none;stroke-opacity:1" />
      <path
         d="m 217.05155,780.70796 h -2.91 v -2.82 h 5.82 v 2.82 z"
         stroke="#0000ff"
         stroke-width="0.18"
         id="path5272-4"
         style="fill:none;stroke:#ff0000;stroke-width:0.127;stroke-linecap:round;stroke-linejoin:round;stroke-miterlimit:4;stroke-dasharray:none;stroke-opacity:1" />
      <path
         d="m 229.05155,780.70796 h -2.91 v -2.82 h 5.82 v 2.82 z"
         stroke="#0000ff"
         stroke-width="0.18"
         id="path5274-7"
         style="fill:none;stroke:#ff0000;stroke-width:0.127;stroke-linecap:round;stroke-linejoin:round;stroke-miterlimit:4;stroke-dasharray:none;stroke-opacity:1" />
      <path
         d="m 61.05155,811.68796 h 9 c 0.05,0 0.09,-0.04 0.09,-0.09 v -2.91 h 5.82 v 2.91 c 0,0.05 0.04,0.09 0.09,0.09 h 6 c 0.05,0 0.09,-0.04 0.09,-0.09 v -2.91 h 5.82 v 2.91 c 0,0.05 0.04,0.09 0.09,0.09 h 6 c 0.05,0 0.09,-0.04 0.09,-0.09 v -2.91 h 5.82 v 2.91 c 0,0.05 0.04,0.09 0.09,0.09 h 6 c 0.05,0 0.09,-0.04 0.09,-0.09 v -2.91 h 5.82 v 2.91 c 0,0.05 0.04,0.09 0.09,0.09 h 6 c 0.05,0 0.09,-0.04 0.09,-0.09 v -2.91 h 5.82 v 2.91 c 0,0.05 0.04,0.09 0.09,0.09 h 6 c 0.05,0 0.09,-0.04 0.09,-0.09 v -2.91 h 5.82 v 2.91 c 0,0.05 0.04,0.09 0.09,0.09 h 6 c 0.05,0 0.09,-0.04 0.09,-0.09 v -2.91 h 5.82 v 2.91 c 0,0.05 0.04,0.09 0.09,0.09 h 6 c 0.05,0 0.09,-0.04 0.09,-0.09 v -2.91 h 5.82 v 2.91 c 0,0.05 0.04,0.09 0.09,0.09 h 6 c 0.05,0 0.09,-0.04 0.09,-0.09 v -2.91 h 5.82 v 2.91 c 0,0.05 0.04,0.09 0.09,0.09 h 6 c 0.05,0 0.09,-0.04 0.09,-0.09 v -2.91 h 5.82 v 2.91 c 0,0.05 0.04,0.09 0.09,0.09 h 6 c 0.05,0 0.09,-0.04 0.09,-0.09 v -2.91 h 5.82 v 2.91 c 0,0.05 0.04,0.09 0.09,0.09 h 6 c 0.05,0 0.09,-0.04 0.09,-0.09 v -2.91 h 5.82 v 2.91 c 0,0.05 0.04,0.09 0.09,0.09 h 6 c 0.05,0 0.09,-0.04 0.09,-0.09 v -2.91 h 5.82 v 2.91 c 0,0.05 0.04,0.09 0.09,0.09 h 6 c 0.05,0 0.09,-0.04 0.09,-0.09 v -2.91 h 5.82 v 2.91 c 0,0.05 0.04,0.09 0.09,0.09 h 9 3 c 0.05,0 0.09,-0.04 0.09,-0.09 v -3 -11 c 0,-0.05 -0.04,-0.09 -0.09,-0.09 h -2.91 v -5.82 h 2.91 c 0.05,0 0.09,-0.04 0.09,-0.09 v -6 c 0,-0.05 -0.04,-0.09 -0.09,-0.09 h -2.91 v -5.82 h 2.91 c 0.05,0 0.09,-0.04 0.09,-0.09 v -11 -3 c 0,-0.05 -0.04,-0.09 -0.09,-0.09 h -3 -9 c -0.05,0 -0.09,0.04 -0.09,0.09 v 2.91 h -5.82 v -2.91 c 0,-0.05 -0.04,-0.09 -0.09,-0.09 h -6 c -0.05,0 -0.09,0.04 -0.09,0.09 v 2.91 h -5.82 v -2.91 c 0,-0.05 -0.04,-0.09 -0.09,-0.09 h -6 c -0.05,0 -0.09,0.04 -0.09,0.09 v 2.91 h -5.82 v -2.91 c 0,-0.05 -0.04,-0.09 -0.09,-0.09 h -6 c -0.05,0 -0.09,0.04 -0.09,0.09 v 2.91 h -5.82 v -2.91 c 0,-0.05 -0.04,-0.09 -0.09,-0.09 h -6 c -0.05,0 -0.09,0.04 -0.09,0.09 v 2.91 h -5.82 v -2.91 c 0,-0.05 -0.04,-0.09 -0.09,-0.09 h -6 c -0.05,0 -0.09,0.04 -0.09,0.09 v 2.91 h -5.82 v -2.91 c 0,-0.05 -0.04,-0.09 -0.09,-0.09 h -6 c -0.05,0 -0.09,0.04 -0.09,0.09 v 2.91 h -5.82 v -2.91 c 0,-0.05 -0.04,-0.09 -0.09,-0.09 h -6 c -0.05,0 -0.09,0.04 -0.09,0.09 v 2.91 h -5.82 v -2.91 c 0,-0.05 -0.04,-0.09 -0.09,-0.09 h -6 c -0.05,0 -0.09,0.04 -0.09,0.09 v 2.91 h -5.82 v -2.91 c 0,-0.05 -0.04,-0.09 -0.09,-0.09 h -6 c -0.05,0 -0.09,0.04 -0.09,0.09 v 2.91 h -5.82 v -2.91 c 0,-0.05 -0.04,-0.09 -0.09,-0.09 h -6 c -0.05,0 -0.09,0.04 -0.09,0.09 v 2.91 h -5.82 v -2.91 c 0,-0.05 -0.04,-0.09 -0.09,-0.09 h -6 c -0.05,0 -0.09,0.04 -0.09,0.09 v 2.91 h -5.82 v -2.91 c 0,-0.05 -0.04,-0.09 -0.09,-0.09 h -6 c -0.05,0 -0.09,0.04 -0.09,0.09 v 2.91 h -5.82 v -2.91 c 0,-0.05 -0.04,-0.09 -0.09,-0.09 h -6 c -0.05,0 -0.09,0.04 -0.09,0.09 v 2.91 h -5.82 v -2.91 c 0,-0.05 -0.04,-0.09 -0.09,-0.09 h -9 -3 c -0.05,0 -0.09,0.04 -0.09,0.09 v 3 11 c 0,0.05 0.04,0.09 0.09,0.09 h 2.91 v 5.82 h -2.91 c -0.05,0 -0.09,0.04 -0.09,0.09 v 6 c 0,0.05 0.04,0.09 0.09,0.09 h 2.91 v 5.82 h -2.91 c -0.05,0 -0.09,0.04 -0.09,0.09 v 11 3 c 0,0.05 0.04,0.09 0.09,0.09 z"
         stroke="#000000"
         stroke-width="0.18"
         id="path5276-7"
         style="fill:none;stroke:#00ff00;stroke-width:0.127;stroke-linecap:round;stroke-linejoin:round;stroke-miterlimit:4;stroke-dasharray:none;stroke-opacity:1" />
      <path
         d="M 105.12371,666.58012 H 25.213714 v -639.82 H 185.03371 v 639.82 z"
         stroke="#0000ff"
         stroke-width="0.18"
         id="path5532"
         style="fill:none;stroke:#ff0000;stroke-width:0.127;stroke-linecap:round;stroke-linejoin:round;stroke-miterlimit:4;stroke-dasharray:none;stroke-opacity:1" />
      <path
         d="m 15.123714,676.76012 h 8.91 v 2.91 c 0,0.05 0.04,0.09 0.09,0.09 h 6 c 0.05,0 0.09,-0.04 0.09,-0.09 v -2.91 h 5.82 v 2.91 c 0,0.05 0.04,0.09 0.09,0.09 h 6 c 0.05,0 0.09,-0.04 0.09,-0.09 v -2.91 h 5.82 v 2.91 c 0,0.05 0.04,0.09 0.09,0.09 h 6 c 0.05,0 0.09,-0.04 0.09,-0.09 v -2.91 h 5.82 v 2.91 c 0,0.05 0.04,0.09 0.09,0.09 h 6 c 0.05,0 0.09,-0.04 0.09,-0.09 v -2.91 h 5.82 v 2.91 c 0,0.05 0.04,0.09 0.09,0.09 h 6 c 0.05,0 0.09,-0.04 0.09,-0.09 v -2.91 h 5.82 v 2.91 c 0,0.05 0.04,0.09 0.09,0.09 h 6 c 0.05,0 0.09,-0.04 0.09,-0.09 v -2.91 h 5.82 v 2.91 c 0,0.05 0.04,0.09 0.09,0.09 h 5.999996 c 0.05,0 0.09,-0.04 0.09,-0.09 v -2.91 h 5.82 v 2.91 c 0,0.05 0.04,0.09 0.09,0.09 h 6 c 0.05,0 0.09,-0.04 0.09,-0.09 v -2.91 h 5.82 v 2.91 c 0,0.05 0.04,0.09 0.09,0.09 h 6 c 0.05,0 0.09,-0.04 0.09,-0.09 v -2.91 h 5.82 v 2.91 c 0,0.05 0.04,0.09 0.09,0.09 h 6 c 0.05,0 0.09,-0.04 0.09,-0.09 v -2.91 h 5.82 v 2.91 c 0,0.05 0.04,0.09 0.09,0.09 h 6 c 0.05,0 0.09,-0.04 0.09,-0.09 v -2.91 h 5.82 v 2.91 c 0,0.05 0.04,0.09 0.09,0.09 h 6 c 0.05,0 0.09,-0.04 0.09,-0.09 v -2.91 h 5.82 v 2.91 c 0,0.05 0.04,0.09 0.09,0.09 h 6 c 0.05,0 0.09,-0.04 0.09,-0.09 v -2.91 h 5.82 v 2.91 c 0,0.05 0.04,0.09 0.09,0.09 h 6 c 0.05,0 0.09,-0.04 0.09,-0.09 v -2.91 h 8.91 c 0.05,0 0.09,-0.04 0.09,-0.09 v -8.91 h 2.91 c 0.05,0 0.09,-0.04 0.09,-0.09 v -6 c 0,-0.05 -0.04,-0.09 -0.09,-0.09 h -2.91 v -5.82 h 2.91 c 0.05,0 0.09,-0.04 0.09,-0.09 v -6 c 0,-0.05 -0.04,-0.09 -0.09,-0.09 h -2.91 v -5.82 h 2.91 c 0.05,0 0.09,-0.04 0.09,-0.09 v -6 c 0,-0.05 -0.04,-0.09 -0.09,-0.09 h -2.91 v -5.82 h 2.91 c 0.05,0 0.09,-0.04 0.09,-0.09 v -6 c 0,-0.05 -0.04,-0.09 -0.09,-0.09 h -2.91 v -5.82 h 2.91 c 0.05,0 0.09,-0.04 0.09,-0.09 v -6 c 0,-0.05 -0.04,-0.09 -0.09,-0.09 h -2.91 v -5.82 h 2.91 c 0.05,0 0.09,-0.04 0.09,-0.09 v -6 c 0,-0.05 -0.04,-0.09 -0.09,-0.09 h -2.91 v -5.82 h 2.91 c 0.05,0 0.09,-0.04 0.09,-0.09 v -6 c 0,-0.05 -0.04,-0.09 -0.09,-0.09 h -2.91 v -5.82 h 2.91 c 0.05,0 0.09,-0.04 0.09,-0.09 v -6 c 0,-0.05 -0.04,-0.09 -0.09,-0.09 h -2.91 v -5.82 h 2.91 c 0.05,0 0.09,-0.04 0.09,-0.09 v -6 c 0,-0.05 -0.04,-0.09 -0.09,-0.09 h -2.91 v -5.82 h 2.91 c 0.05,0 0.09,-0.04 0.09,-0.09 v -6 c 0,-0.05 -0.04,-0.09 -0.09,-0.09 h -2.91 v -5.82 h 2.91 c 0.05,0 0.09,-0.04 0.09,-0.09 v -6 c 0,-0.05 -0.04,-0.09 -0.09,-0.09 h -2.91 v -5.82 h 2.91 c 0.05,0 0.09,-0.04 0.09,-0.09 v -6 c 0,-0.05 -0.04,-0.09 -0.09,-0.09 h -2.91 v -5.82 h 2.91 c 0.05,0 0.09,-0.04 0.09,-0.09 v -6 c 0,-0.05 -0.04,-0.09 -0.09,-0.09 h -2.91 v -5.82 h 2.91 c 0.05,0 0.09,-0.04 0.09,-0.09 v -6 c 0,-0.05 -0.04,-0.09 -0.09,-0.09 h -2.91 v -5.82 h 2.91 c 0.05,0 0.09,-0.04 0.09,-0.09 v -6 c 0,-0.05 -0.04,-0.09 -0.09,-0.09 h -2.91 v -5.82 h 2.91 c 0.05,0 0.09,-0.04 0.09,-0.09 v -6 c 0,-0.05 -0.04,-0.09 -0.09,-0.09 h -2.91 v -5.82 h 2.91 c 0.05,0 0.09,-0.04 0.09,-0.09 v -6 c 0,-0.05 -0.04,-0.09 -0.09,-0.09 h -2.91 v -5.82 h 2.91 c 0.05,0 0.09,-0.04 0.09,-0.09 v -6 c 0,-0.05 -0.04,-0.09 -0.09,-0.09 h -2.91 v -5.82 h 2.91 c 0.05,0 0.09,-0.04 0.09,-0.09 v -6 c 0,-0.05 -0.04,-0.09 -0.09,-0.09 h -2.91 v -5.82 h 2.91 c 0.05,0 0.09,-0.04 0.09,-0.09 v -6 c 0,-0.05 -0.04,-0.09 -0.09,-0.09 h -2.91 v -5.82 h 2.91 c 0.05,0 0.09,-0.04 0.09,-0.09 v -6 c 0,-0.05 -0.04,-0.09 -0.09,-0.09 h -2.91 v -5.82 h 2.91 c 0.05,0 0.09,-0.04 0.09,-0.09 v -6 c 0,-0.05 -0.04,-0.09 -0.09,-0.09 h -2.91 v -5.82 h 2.91 c 0.05,0 0.09,-0.04 0.09,-0.09 v -6 c 0,-0.05 -0.04,-0.09 -0.09,-0.09 h -2.91 v -5.82 h 2.91 c 0.05,0 0.09,-0.04 0.09,-0.09 v -6 c 0,-0.05 -0.04,-0.09 -0.09,-0.09 h -2.91 v -5.82 h 2.91 c 0.05,0 0.09,-0.04 0.09,-0.09 v -6 c 0,-0.05 -0.04,-0.09 -0.09,-0.09 h -2.91 v -5.82 h 2.91 c 0.05,0 0.09,-0.04 0.09,-0.09 v -6 c 0,-0.05 -0.04,-0.09 -0.09,-0.09 h -2.91 v -5.82 h 2.91 c 0.05,0 0.09,-0.04 0.09,-0.09 v -6 c 0,-0.05 -0.04,-0.09 -0.09,-0.09 h -2.91 v -5.82 h 2.91 c 0.05,0 0.09,-0.04 0.09,-0.09 v -6 c 0,-0.05 -0.04,-0.09 -0.09,-0.09 h -2.91 v -5.82 h 2.91 c 0.05,0 0.09,-0.04 0.09,-0.09 v -6 c 0,-0.05 -0.04,-0.09 -0.09,-0.09 h -2.91 v -5.82 h 2.91 c 0.05,0 0.09,-0.04 0.09,-0.09 v -6 c 0,-0.05 -0.04,-0.09 -0.09,-0.09 h -2.91 v -5.82 h 2.91 c 0.05,0 0.09,-0.04 0.09,-0.09 v -6 c 0,-0.05 -0.04,-0.09 -0.09,-0.09 h -2.91 v -5.82 h 2.91 c 0.05,0 0.09,-0.04 0.09,-0.09 v -6 c 0,-0.05 -0.04,-0.09 -0.09,-0.09 h -2.91 v -5.82 h 2.91 c 0.05,0 0.09,-0.04 0.09,-0.09 v -6 c 0,-0.05 -0.04,-0.09 -0.09,-0.09 h -2.91 v -5.82 h 2.91 c 0.05,0 0.09,-0.04 0.09,-0.09 v -6 c 0,-0.05 -0.04,-0.09 -0.09,-0.09 h -2.91 v -5.82 h 2.91 c 0.05,0 0.09,-0.04 0.09,-0.09 v -6 c 0,-0.05 -0.04,-0.09 -0.09,-0.09 h -2.91 v -5.82 h 2.91 c 0.05,0 0.09,-0.04 0.09,-0.09 v -6 c 0,-0.05 -0.04,-0.09 -0.09,-0.09 h -2.91 v -5.82 h 2.91 c 0.05,0 0.09,-0.04 0.09,-0.09 v -6 c 0,-0.05 -0.04,-0.09 -0.09,-0.09 h -2.91 v -5.82 h 2.91 c 0.05,0 0.09,-0.04 0.09,-0.09 v -6 c 0,-0.05 -0.04,-0.09 -0.09,-0.09 h -2.91 v -5.82 h 2.91 c 0.05,0 0.09,-0.04 0.09,-0.09 v -6 c 0,-0.05 -0.04,-0.09 -0.09,-0.09 h -2.91 v -5.82 h 2.91 c 0.05,0 0.09,-0.04 0.09,-0.09 v -6 c 0,-0.05 -0.04,-0.09 -0.09,-0.09 h -2.91 v -5.82 h 2.91 c 0.05,0 0.09,-0.04 0.09,-0.09 v -6 c 0,-0.05 -0.04,-0.09 -0.09,-0.09 h -2.91 v -5.82 h 2.91 c 0.05,0 0.09,-0.04 0.09,-0.09 v -6 c 0,-0.05 -0.04,-0.09 -0.09,-0.09 h -2.91 v -5.82 h 2.91 c 0.05,0 0.09,-0.04 0.09,-0.09 v -6 c 0,-0.05 -0.04,-0.09 -0.09,-0.09 h -2.91 v -5.82 h 2.91 c 0.05,0 0.09,-0.04 0.09,-0.09 v -6 c 0,-0.05 -0.04,-0.09 -0.09,-0.09 h -2.91 v -5.82 h 2.91 c 0.05,0 0.09,-0.04 0.09,-0.09 v -6 c 0,-0.05 -0.04,-0.09 -0.09,-0.09 h -2.91 v -5.82 h 2.91 c 0.05,0 0.09,-0.04 0.09,-0.09 v -6 c 0,-0.05 -0.04,-0.09 -0.09,-0.09 h -2.91 v -5.82 h 2.91 c 0.05,0 0.09,-0.04 0.09,-0.09 v -6 c 0,-0.05 -0.04,-0.09 -0.09,-0.09 h -2.91 v -5.82 h 2.91 c 0.05,0 0.09,-0.04 0.09,-0.09 v -6 c 0,-0.05 -0.04,-0.09 -0.09,-0.09 h -2.91 v -5.82 h 2.91 c 0.05,0 0.09,-0.04 0.09,-0.09 v -6 c 0,-0.05 -0.04,-0.09 -0.09,-0.09 h -2.91 v -5.82 h 2.91 c 0.05,0 0.09,-0.04 0.09,-0.09 v -6 c 0,-0.05 -0.04,-0.09 -0.09,-0.09 h -2.91 v -5.82 h 2.91 c 0.05,0 0.09,-0.04 0.09,-0.09 v -6 c 0,-0.05 -0.04,-0.09 -0.09,-0.09 h -2.91 v -5.82 h 2.91 c 0.05,0 0.09,-0.04 0.09,-0.09 v -6 c 0,-0.05 -0.04,-0.09 -0.09,-0.09 h -2.91 v -5.82 h 2.91 c 0.05,0 0.09,-0.04 0.09,-0.09 v -6 c 0,-0.05 -0.04,-0.09 -0.09,-0.09 h -2.91 v -5.82 h 2.91 c 0.05,0 0.09,-0.04 0.09,-0.09 v -6 c 0,-0.05 -0.04,-0.09 -0.09,-0.09 h -2.91 v -8.91 c 0,-0.05 -0.04,-0.09 -0.09,-0.09 h -8.91 v -2.91 c 0,-0.05 -0.04,-0.09 -0.09,-0.09 h -6 c -0.05,0 -0.09,0.04 -0.09,0.09 v 2.91 h -5.82 v -2.91 c 0,-0.05 -0.04,-0.09 -0.09,-0.09 h -6 c -0.05,0 -0.09,0.04 -0.09,0.09 v 2.91 h -5.82 v -2.91 c 0,-0.05 -0.04,-0.09 -0.09,-0.09 h -6 c -0.05,0 -0.09,0.04 -0.09,0.09 v 2.91 h -5.82 v -2.91 c 0,-0.05 -0.04,-0.09 -0.09,-0.09 h -6 c -0.05,0 -0.09,0.04 -0.09,0.09 v 2.91 h -5.82 v -2.91 c 0,-0.05 -0.04,-0.09 -0.09,-0.09 h -6 c -0.05,0 -0.09,0.04 -0.09,0.09 v 2.91 h -5.82 v -2.91 c 0,-0.05 -0.04,-0.09 -0.09,-0.09 h -6 c -0.05,0 -0.09,0.04 -0.09,0.09 v 2.91 h -5.82 v -2.91 c 0,-0.05 -0.04,-0.09 -0.09,-0.09 h -6 c -0.05,0 -0.09,0.04 -0.09,0.09 v 2.91 h -5.82 v -2.91 c 0,-0.05 -0.04,-0.09 -0.09,-0.09 h -5.999996 c -0.05,0 -0.09,0.04 -0.09,0.09 v 2.91 h -5.82 v -2.91 c 0,-0.05 -0.04,-0.09 -0.09,-0.09 h -6 c -0.05,0 -0.09,0.04 -0.09,0.09 v 2.91 h -5.82 v -2.91 c 0,-0.05 -0.04,-0.09 -0.09,-0.09 h -6 c -0.05,0 -0.09,0.04 -0.09,0.09 v 2.91 h -5.82 v -2.91 c 0,-0.05 -0.04,-0.09 -0.09,-0.09 h -6 c -0.05,0 -0.09,0.04 -0.09,0.09 v 2.91 h -5.82 v -2.91 c 0,-0.05 -0.04,-0.09 -0.09,-0.09 h -6 c -0.05,0 -0.09,0.04 -0.09,0.09 v 2.91 h -5.82 v -2.91 c 0,-0.05 -0.04,-0.09 -0.09,-0.09 h -6 c -0.05,0 -0.09,0.04 -0.09,0.09 v 2.91 h -5.82 v -2.91 c 0,-0.05 -0.04,-0.09 -0.09,-0.09 h -6 c -0.05,0 -0.09,0.04 -0.09,0.09 v 2.91 h -8.91 c -0.05,0 -0.09,0.04 -0.09,0.09 v 8.91 h -2.91 c -0.05,0 -0.09,0.04 -0.09,0.09 v 6 c 0,0.05 0.04,0.09 0.09,0.09 h 2.91 v 5.82 h -2.91 c -0.05,0 -0.09,0.04 -0.09,0.09 v 6 c 0,0.05 0.04,0.09 0.09,0.09 h 2.91 v 5.82 h -2.91 c -0.05,0 -0.09,0.04 -0.09,0.09 v 6 c 0,0.05 0.04,0.09 0.09,0.09 h 2.91 v 5.82 h -2.91 c -0.05,0 -0.09,0.04 -0.09,0.09 v 6 c 0,0.05 0.04,0.09 0.09,0.09 h 2.91 v 5.82 h -2.91 c -0.05,0 -0.09,0.04 -0.09,0.09 v 6 c 0,0.05 0.04,0.09 0.09,0.09 h 2.91 v 5.82 h -2.91 c -0.05,0 -0.09,0.04 -0.09,0.09 v 6 c 0,0.05 0.04,0.09 0.09,0.09 h 2.91 v 5.82 h -2.91 c -0.05,0 -0.09,0.04 -0.09,0.09 v 6 c 0,0.05 0.04,0.09 0.09,0.09 h 2.91 v 5.82 h -2.91 c -0.05,0 -0.09,0.04 -0.09,0.09 v 6 c 0,0.05 0.04,0.09 0.09,0.09 h 2.91 v 5.82 h -2.91 c -0.05,0 -0.09,0.04 -0.09,0.09 v 6 c 0,0.05 0.04,0.09 0.09,0.09 h 2.91 v 5.82 h -2.91 c -0.05,0 -0.09,0.04 -0.09,0.09 v 6 c 0,0.05 0.04,0.09 0.09,0.09 h 2.91 v 5.82 h -2.91 c -0.05,0 -0.09,0.04 -0.09,0.09 v 6 c 0,0.05 0.04,0.09 0.09,0.09 h 2.91 v 5.82 h -2.91 c -0.05,0 -0.09,0.04 -0.09,0.09 v 6 c 0,0.05 0.04,0.09 0.09,0.09 h 2.91 v 5.82 h -2.91 c -0.05,0 -0.09,0.04 -0.09,0.09 v 6 c 0,0.05 0.04,0.09 0.09,0.09 h 2.91 v 5.82 h -2.91 c -0.05,0 -0.09,0.04 -0.09,0.09 v 6 c 0,0.05 0.04,0.09 0.09,0.09 h 2.91 v 5.82 h -2.91 c -0.05,0 -0.09,0.04 -0.09,0.09 v 6 c 0,0.05 0.04,0.09 0.09,0.09 h 2.91 v 5.82 h -2.91 c -0.05,0 -0.09,0.04 -0.09,0.09 v 6 c 0,0.05 0.04,0.09 0.09,0.09 h 2.91 v 5.82 h -2.91 c -0.05,0 -0.09,0.04 -0.09,0.09 v 6 c 0,0.05 0.04,0.09 0.09,0.09 h 2.91 v 5.82 h -2.91 c -0.05,0 -0.09,0.04 -0.09,0.09 v 6 c 0,0.05 0.04,0.09 0.09,0.09 h 2.91 v 5.82 h -2.91 c -0.05,0 -0.09,0.04 -0.09,0.09 v 6 c 0,0.05 0.04,0.09 0.09,0.09 h 2.91 v 5.82 h -2.91 c -0.05,0 -0.09,0.04 -0.09,0.09 v 6 c 0,0.05 0.04,0.09 0.09,0.09 h 2.91 v 5.82 h -2.91 c -0.05,0 -0.09,0.04 -0.09,0.09 v 6 c 0,0.05 0.04,0.09 0.09,0.09 h 2.91 v 5.82 h -2.91 c -0.05,0 -0.09,0.04 -0.09,0.09 v 6 c 0,0.05 0.04,0.09 0.09,0.09 h 2.91 v 5.82 h -2.91 c -0.05,0 -0.09,0.04 -0.09,0.09 v 6 c 0,0.05 0.04,0.09 0.09,0.09 h 2.91 v 5.82 h -2.91 c -0.05,0 -0.09,0.04 -0.09,0.09 v 6 c 0,0.05 0.04,0.09 0.09,0.09 h 2.91 v 5.82 h -2.91 c -0.05,0 -0.09,0.04 -0.09,0.09 v 6 c 0,0.05 0.04,0.09 0.09,0.09 h 2.91 v 5.82 h -2.91 c -0.05,0 -0.09,0.04 -0.09,0.09 v 6 c 0,0.05 0.04,0.09 0.09,0.09 h 2.91 v 5.82 h -2.91 c -0.05,0 -0.09,0.04 -0.09,0.09 v 6 c 0,0.05 0.04,0.09 0.09,0.09 h 2.91 v 5.82 h -2.91 c -0.05,0 -0.09,0.04 -0.09,0.09 v 6 c 0,0.05 0.04,0.09 0.09,0.09 h 2.91 v 5.82 h -2.91 c -0.05,0 -0.09,0.04 -0.09,0.09 v 6 c 0,0.05 0.04,0.09 0.09,0.09 h 2.91 v 5.82 h -2.91 c -0.05,0 -0.09,0.04 -0.09,0.09 v 6 c 0,0.05 0.04,0.09 0.09,0.09 h 2.91 v 5.82 h -2.91 c -0.05,0 -0.09,0.04 -0.09,0.09 v 6 c 0,0.05 0.04,0.09 0.09,0.09 h 2.91 v 5.82 h -2.91 c -0.05,0 -0.09,0.04 -0.09,0.09 v 6 c 0,0.05 0.04,0.09 0.09,0.09 h 2.91 v 5.82 h -2.91 c -0.05,0 -0.09,0.04 -0.09,0.09 v 6 c 0,0.05 0.04,0.09 0.09,0.09 h 2.91 v 5.82 h -2.91 c -0.05,0 -0.09,0.04 -0.09,0.09 v 6 c 0,0.05 0.04,0.09 0.09,0.09 h 2.91 v 5.82 h -2.91 c -0.05,0 -0.09,0.04 -0.09,0.09 v 6 c 0,0.05 0.04,0.09 0.09,0.09 h 2.91 v 5.82 h -2.91 c -0.05,0 -0.09,0.04 -0.09,0.09 v 6 c 0,0.05 0.04,0.09 0.09,0.09 h 2.91 v 5.82 h -2.91 c -0.05,0 -0.09,0.04 -0.09,0.09 v 6 c 0,0.05 0.04,0.09 0.09,0.09 h 2.91 v 5.82 h -2.91 c -0.05,0 -0.09,0.04 -0.09,0.09 v 6 c 0,0.05 0.04,0.09 0.09,0.09 h 2.91 v 5.82 h -2.91 c -0.05,0 -0.09,0.04 -0.09,0.09 v 6 c 0,0.05 0.04,0.09 0.09,0.09 h 2.91 v 5.82 h -2.91 c -0.05,0 -0.09,0.04 -0.09,0.09 v 6 c 0,0.05 0.04,0.09 0.09,0.09 h 2.91 v 5.82 h -2.91 c -0.05,0 -0.09,0.04 -0.09,0.09 v 6 c 0,0.05 0.04,0.09 0.09,0.09 h 2.91 v 5.82 h -2.91 c -0.05,0 -0.09,0.04 -0.09,0.09 v 6 c 0,0.05 0.04,0.09 0.09,0.09 h 2.91 v 5.82 h -2.91 c -0.05,0 -0.09,0.04 -0.09,0.09 v 6 c 0,0.05 0.04,0.09 0.09,0.09 h 2.91 v 5.82 h -2.91 c -0.05,0 -0.09,0.04 -0.09,0.09 v 6 c 0,0.05 0.04,0.09 0.09,0.09 h 2.91 v 5.82 h -2.91 c -0.05,0 -0.09,0.04 -0.09,0.09 v 6 c 0,0.05 0.04,0.09 0.09,0.09 h 2.91 v 5.82 h -2.91 c -0.05,0 -0.09,0.04 -0.09,0.09 v 6 c 0,0.05 0.04,0.09 0.09,0.09 h 2.91 v 5.82 h -2.91 c -0.05,0 -0.09,0.04 -0.09,0.09 v 6 c 0,0.05 0.04,0.09 0.09,0.09 h 2.91 v 5.82 h -2.91 c -0.05,0 -0.09,0.04 -0.09,0.09 v 6 c 0,0.05 0.04,0.09 0.09,0.09 h 2.91 v 5.82 h -2.91 c -0.05,0 -0.09,0.04 -0.09,0.09 v 6 c 0,0.05 0.04,0.09 0.09,0.09 h 2.91 v 5.82 h -2.91 c -0.05,0 -0.09,0.04 -0.09,0.09 v 6 c 0,0.05 0.04,0.09 0.09,0.09 h 2.91 v 5.82 h -2.91 c -0.05,0 -0.09,0.04 -0.09,0.09 v 6 c 0,0.05 0.04,0.09 0.09,0.09 h 2.91 v 5.82 h -2.91 c -0.05,0 -0.09,0.04 -0.09,0.09 v 6 c 0,0.05 0.04,0.09 0.09,0.09 h 2.91 v 5.82 h -2.91 c -0.05,0 -0.09,0.04 -0.09,0.09 v 6 c 0,0.05 0.04,0.09 0.09,0.09 h 2.91 v 5.82 h -2.91 c -0.05,0 -0.09,0.04 -0.09,0.09 v 6 c 0,0.05 0.04,0.09 0.09,0.09 h 2.91 v 8.91 c 0,0.05 0.04,0.09 0.09,0.09 z"
         stroke="#000000"
         stroke-width="0.18"
         id="path5534"
         style="fill:none;stroke:#00ff00;stroke-width:0.127;stroke-linecap:round;stroke-linejoin:round;stroke-miterlimit:4;stroke-dasharray:none;stroke-opacity:1" />
      <g
         id="p-6"
         style="fill:none;stroke-linecap:round;stroke-linejoin:round;stroke:#00ff00;stroke-opacity:1;stroke-width:0.127;stroke-miterlimit:4;stroke-dasharray:none"
         transform="translate(8.7403217,3.58012)">
        <path
           d="m 200.77,673.18 h 8.91 v 2.91 c 0,0.05 0.04,0.09 0.09,0.09 h 6 c 0.05,0 0.09,-0.04 0.09,-0.09 v -2.91 h 5.82 v 2.91 c 0,0.05 0.04,0.09 0.09,0.09 h 6 c 0.05,0 0.09,-0.04 0.09,-0.09 v -2.91 h 5.82 v 2.91 c 0,0.05 0.04,0.09 0.09,0.09 h 6 c 0.05,0 0.09,-0.04 0.09,-0.09 v -2.91 h 5.82 v 2.91 c 0,0.05 0.04,0.09 0.09,0.09 h 6 c 0.05,0 0.09,-0.04 0.09,-0.09 v -2.91 h 5.82 v 2.91 c 0,0.05 0.04,0.09 0.09,0.09 h 6 c 0.05,0 0.09,-0.04 0.09,-0.09 v -2.91 h 5.82 v 2.91 c 0,0.05 0.04,0.09 0.09,0.09 h 6 c 0.05,0 0.09,-0.04 0.09,-0.09 v -2.91 h 5.82 v 2.91 c 0,0.05 0.04,0.09 0.09,0.09 h 6 c 0.05,0 0.09,-0.04 0.09,-0.09 v -2.91 h 5.82 v 2.91 c 0,0.05 0.04,0.09 0.09,0.09 h 6 c 0.05,0 0.09,-0.04 0.09,-0.09 v -2.91 h 5.82 v 2.91 c 0,0.05 0.04,0.09 0.09,0.09 h 6 c 0.05,0 0.09,-0.04 0.09,-0.09 v -2.91 h 5.82 v 2.91 c 0,0.05 0.04,0.09 0.09,0.09 h 6 c 0.05,0 0.09,-0.04 0.09,-0.09 v -2.91 h 5.82 v 2.91 c 0,0.05 0.04,0.09 0.09,0.09 h 6 c 0.05,0 0.09,-0.04 0.09,-0.09 v -2.91 h 5.82 v 2.91 c 0,0.05 0.04,0.09 0.09,0.09 h 6 c 0.05,0 0.09,-0.04 0.09,-0.09 v -2.91 h 5.82 v 2.91 c 0,0.05 0.04,0.09 0.09,0.09 h 6 c 0.05,0 0.09,-0.04 0.09,-0.09 v -2.91 h 5.82 v 2.91 c 0,0.05 0.04,0.09 0.09,0.09 h 6 c 0.05,0 0.09,-0.04 0.09,-0.09 v -2.91 h 8.91 c 0.05,0 0.09,-0.04 0.09,-0.09 v -8.91 h 2.91 c 0.05,0 0.09,-0.04 0.09,-0.09 v -6 c 0,-0.05 -0.04,-0.09 -0.09,-0.09 h -2.91 v -5.82 h 2.91 c 0.05,0 0.09,-0.04 0.09,-0.09 v -6 c 0,-0.05 -0.04,-0.09 -0.09,-0.09 h -2.91 v -5.82 h 2.91 c 0.05,0 0.09,-0.04 0.09,-0.09 v -6 c 0,-0.05 -0.04,-0.09 -0.09,-0.09 h -2.91 v -5.82 h 2.91 c 0.05,0 0.09,-0.04 0.09,-0.09 v -6 c 0,-0.05 -0.04,-0.09 -0.09,-0.09 h -2.91 v -5.82 h 2.91 c 0.05,0 0.09,-0.04 0.09,-0.09 v -6 c 0,-0.05 -0.04,-0.09 -0.09,-0.09 h -2.91 v -5.82 h 2.91 c 0.05,0 0.09,-0.04 0.09,-0.09 v -6 c 0,-0.05 -0.04,-0.09 -0.09,-0.09 h -2.91 v -5.82 h 2.91 c 0.05,0 0.09,-0.04 0.09,-0.09 v -6 c 0,-0.05 -0.04,-0.09 -0.09,-0.09 h -2.91 v -5.82 h 2.91 c 0.05,0 0.09,-0.04 0.09,-0.09 v -6 c 0,-0.05 -0.04,-0.09 -0.09,-0.09 h -2.91 v -5.82 h 2.91 c 0.05,0 0.09,-0.04 0.09,-0.09 v -6 c 0,-0.05 -0.04,-0.09 -0.09,-0.09 h -2.91 v -5.82 h 2.91 c 0.05,0 0.09,-0.04 0.09,-0.09 v -6 c 0,-0.05 -0.04,-0.09 -0.09,-0.09 h -2.91 v -5.82 h 2.91 c 0.05,0 0.09,-0.04 0.09,-0.09 v -6 c 0,-0.05 -0.04,-0.09 -0.09,-0.09 h -2.91 v -5.82 h 2.91 c 0.05,0 0.09,-0.04 0.09,-0.09 v -6 c 0,-0.05 -0.04,-0.09 -0.09,-0.09 h -2.91 v -5.82 h 2.91 c 0.05,0 0.09,-0.04 0.09,-0.09 v -6 c 0,-0.05 -0.04,-0.09 -0.09,-0.09 h -2.91 v -5.82 h 2.91 c 0.05,0 0.09,-0.04 0.09,-0.09 v -6 c 0,-0.05 -0.04,-0.09 -0.09,-0.09 h -2.91 v -5.82 h 2.91 c 0.05,0 0.09,-0.04 0.09,-0.09 v -6 c 0,-0.05 -0.04,-0.09 -0.09,-0.09 h -2.91 v -5.82 h 2.91 c 0.05,0 0.09,-0.04 0.09,-0.09 v -6 c 0,-0.05 -0.04,-0.09 -0.09,-0.09 h -2.91 v -5.82 h 2.91 c 0.05,0 0.09,-0.04 0.09,-0.09 v -6 c 0,-0.05 -0.04,-0.09 -0.09,-0.09 h -2.91 v -5.82 h 2.91 c 0.05,0 0.09,-0.04 0.09,-0.09 v -6 c 0,-0.05 -0.04,-0.09 -0.09,-0.09 h -2.91 v -5.82 h 2.91 c 0.05,0 0.09,-0.04 0.09,-0.09 v -6 c 0,-0.05 -0.04,-0.09 -0.09,-0.09 h -2.91 v -5.82 h 2.91 c 0.05,0 0.09,-0.04 0.09,-0.09 v -6 c 0,-0.05 -0.04,-0.09 -0.09,-0.09 h -2.91 v -5.82 h 2.91 c 0.05,0 0.09,-0.04 0.09,-0.09 v -6 c 0,-0.05 -0.04,-0.09 -0.09,-0.09 h -2.91 v -5.82 h 2.91 c 0.05,0 0.09,-0.04 0.09,-0.09 v -6 c 0,-0.05 -0.04,-0.09 -0.09,-0.09 h -2.91 v -5.82 h 2.91 c 0.05,0 0.09,-0.04 0.09,-0.09 v -6 c 0,-0.05 -0.04,-0.09 -0.09,-0.09 h -2.91 v -5.82 h 2.91 c 0.05,0 0.09,-0.04 0.09,-0.09 v -6 c 0,-0.05 -0.04,-0.09 -0.09,-0.09 h -2.91 v -5.82 h 2.91 c 0.05,0 0.09,-0.04 0.09,-0.09 v -6 c 0,-0.05 -0.04,-0.09 -0.09,-0.09 h -2.91 v -5.82 h 2.91 c 0.05,0 0.09,-0.04 0.09,-0.09 v -6 c 0,-0.05 -0.04,-0.09 -0.09,-0.09 h -2.91 v -5.82 h 2.91 c 0.05,0 0.09,-0.04 0.09,-0.09 v -6 c 0,-0.05 -0.04,-0.09 -0.09,-0.09 h -2.91 v -5.82 h 2.91 c 0.05,0 0.09,-0.04 0.09,-0.09 v -6 c 0,-0.05 -0.04,-0.09 -0.09,-0.09 h -2.91 v -5.82 h 2.91 c 0.05,0 0.09,-0.04 0.09,-0.09 v -6 c 0,-0.05 -0.04,-0.09 -0.09,-0.09 h -2.91 v -5.82 h 2.91 c 0.05,0 0.09,-0.04 0.09,-0.09 v -6 c 0,-0.05 -0.04,-0.09 -0.09,-0.09 h -2.91 v -5.82 h 2.91 c 0.05,0 0.09,-0.04 0.09,-0.09 v -6 c 0,-0.05 -0.04,-0.09 -0.09,-0.09 h -2.91 v -5.82 h 2.91 c 0.05,0 0.09,-0.04 0.09,-0.09 v -6 c 0,-0.05 -0.04,-0.09 -0.09,-0.09 h -2.91 v -5.82 h 2.91 c 0.05,0 0.09,-0.04 0.09,-0.09 v -6 c 0,-0.05 -0.04,-0.09 -0.09,-0.09 h -2.91 v -5.82 h 2.91 c 0.05,0 0.09,-0.04 0.09,-0.09 v -6 c 0,-0.05 -0.04,-0.09 -0.09,-0.09 h -2.91 v -5.82 h 2.91 c 0.05,0 0.09,-0.04 0.09,-0.09 v -6 c 0,-0.05 -0.04,-0.09 -0.09,-0.09 h -2.91 v -5.82 h 2.91 c 0.05,0 0.09,-0.04 0.09,-0.09 v -6 c 0,-0.05 -0.04,-0.09 -0.09,-0.09 h -2.91 v -5.82 h 2.91 c 0.05,0 0.09,-0.04 0.09,-0.09 v -6 c 0,-0.05 -0.04,-0.09 -0.09,-0.09 h -2.91 v -5.82 h 2.91 c 0.05,0 0.09,-0.04 0.09,-0.09 v -6 c 0,-0.05 -0.04,-0.09 -0.09,-0.09 h -2.91 v -5.82 h 2.91 c 0.05,0 0.09,-0.04 0.09,-0.09 v -6 c 0,-0.05 -0.04,-0.09 -0.09,-0.09 h -2.91 v -5.82 h 2.91 c 0.05,0 0.09,-0.04 0.09,-0.09 v -6 c 0,-0.05 -0.04,-0.09 -0.09,-0.09 h -2.91 v -5.82 h 2.91 c 0.05,0 0.09,-0.04 0.09,-0.09 v -6 c 0,-0.05 -0.04,-0.09 -0.09,-0.09 h -2.91 v -5.82 h 2.91 c 0.05,0 0.09,-0.04 0.09,-0.09 v -6 c 0,-0.05 -0.04,-0.09 -0.09,-0.09 h -2.91 v -5.82 h 2.91 c 0.05,0 0.09,-0.04 0.09,-0.09 v -6 c 0,-0.05 -0.04,-0.09 -0.09,-0.09 h -2.91 v -5.82 h 2.91 c 0.05,0 0.09,-0.04 0.09,-0.09 v -6 c 0,-0.05 -0.04,-0.09 -0.09,-0.09 h -2.91 v -5.82 h 2.91 c 0.05,0 0.09,-0.04 0.09,-0.09 v -6 c 0,-0.05 -0.04,-0.09 -0.09,-0.09 h -2.91 v -5.82 h 2.91 c 0.05,0 0.09,-0.04 0.09,-0.09 v -6 c 0,-0.05 -0.04,-0.09 -0.09,-0.09 h -2.91 v -5.82 h 2.91 c 0.05,0 0.09,-0.04 0.09,-0.09 v -6 c 0,-0.05 -0.04,-0.09 -0.09,-0.09 h -2.91 v -5.82 h 2.91 c 0.05,0 0.09,-0.04 0.09,-0.09 v -6 c 0,-0.05 -0.04,-0.09 -0.09,-0.09 h -2.91 v -5.82 h 2.91 c 0.05,0 0.09,-0.04 0.09,-0.09 v -6 c 0,-0.05 -0.04,-0.09 -0.09,-0.09 h -2.91 v -5.82 h 2.91 c 0.05,0 0.09,-0.04 0.09,-0.09 v -6 c 0,-0.05 -0.04,-0.09 -0.09,-0.09 h -2.91 v -5.82 h 2.91 c 0.05,0 0.09,-0.04 0.09,-0.09 v -6 c 0,-0.05 -0.04,-0.09 -0.09,-0.09 h -2.91 v -5.82 h 2.91 c 0.05,0 0.09,-0.04 0.09,-0.09 v -6 c 0,-0.05 -0.04,-0.09 -0.09,-0.09 h -2.91 v -5.82 h 2.91 c 0.05,0 0.09,-0.04 0.09,-0.09 v -6 c 0,-0.05 -0.04,-0.09 -0.09,-0.09 h -2.91 v -5.82 h 2.91 c 0.05,0 0.09,-0.04 0.09,-0.09 v -6 c 0,-0.05 -0.04,-0.09 -0.09,-0.09 h -2.91 v -8.91 c 0,-0.05 -0.04,-0.09 -0.09,-0.09 h -8.91 v -2.91 c 0,-0.05 -0.04,-0.09 -0.09,-0.09 h -6 c -0.05,0 -0.09,0.04 -0.09,0.09 V 13 h -5.82 v -2.91 c 0,-0.05 -0.04,-0.09 -0.09,-0.09 h -6 c -0.05,0 -0.09,0.04 -0.09,0.09 V 13 h -5.82 v -2.91 c 0,-0.05 -0.04,-0.09 -0.09,-0.09 h -6 c -0.05,0 -0.09,0.04 -0.09,0.09 V 13 h -5.82 v -2.91 c 0,-0.05 -0.04,-0.09 -0.09,-0.09 h -6 c -0.05,0 -0.09,0.04 -0.09,0.09 V 13 h -5.82 v -2.91 c 0,-0.05 -0.04,-0.09 -0.09,-0.09 h -6 c -0.05,0 -0.09,0.04 -0.09,0.09 V 13 h -5.82 v -2.91 c 0,-0.05 -0.04,-0.09 -0.09,-0.09 h -6 c -0.05,0 -0.09,0.04 -0.09,0.09 V 13 h -5.82 v -2.91 c 0,-0.05 -0.04,-0.09 -0.09,-0.09 h -6 c -0.05,0 -0.09,0.04 -0.09,0.09 V 13 h -5.82 v -2.91 c 0,-0.05 -0.04,-0.09 -0.09,-0.09 h -6 c -0.05,0 -0.09,0.04 -0.09,0.09 V 13 h -5.82 v -2.91 c 0,-0.05 -0.04,-0.09 -0.09,-0.09 h -6 c -0.05,0 -0.09,0.04 -0.09,0.09 V 13 h -5.82 v -2.91 c 0,-0.05 -0.04,-0.09 -0.09,-0.09 h -6 c -0.05,0 -0.09,0.04 -0.09,0.09 V 13 h -5.82 v -2.91 c 0,-0.05 -0.04,-0.09 -0.09,-0.09 h -6 c -0.05,0 -0.09,0.04 -0.09,0.09 V 13 h -5.82 v -2.91 c 0,-0.05 -0.04,-0.09 -0.09,-0.09 h -6 c -0.05,0 -0.09,0.04 -0.09,0.09 V 13 h -5.82 v -2.91 c 0,-0.05 -0.04,-0.09 -0.09,-0.09 h -6 c -0.05,0 -0.09,0.04 -0.09,0.09 V 13 h -5.82 v -2.91 c 0,-0.05 -0.04,-0.09 -0.09,-0.09 h -6 c -0.05,0 -0.09,0.04 -0.09,0.09 V 13 h -8.91 c -0.05,0 -0.09,0.04 -0.09,0.09 V 22 h -2.91 c -0.05,0 -0.09,0.04 -0.09,0.09 v 6 c 0,0.05 0.04,0.09 0.09,0.09 h 2.91 V 34 h -2.91 c -0.05,0 -0.09,0.04 -0.09,0.09 v 6 c 0,0.05 0.04,0.09 0.09,0.09 h 2.91 V 46 h -2.91 c -0.05,0 -0.09,0.04 -0.09,0.09 v 6 c 0,0.05 0.04,0.09 0.09,0.09 h 2.91 V 58 h -2.91 c -0.05,0 -0.09,0.04 -0.09,0.09 v 6 c 0,0.05 0.04,0.09 0.09,0.09 h 2.91 V 70 h -2.91 c -0.05,0 -0.09,0.04 -0.09,0.09 v 6 c 0,0.05 0.04,0.09 0.09,0.09 h 2.91 V 82 h -2.91 c -0.05,0 -0.09,0.04 -0.09,0.09 v 6 c 0,0.05 0.04,0.09 0.09,0.09 h 2.91 V 94 h -2.91 c -0.05,0 -0.09,0.04 -0.09,0.09 v 6 c 0,0.05 0.04,0.09 0.09,0.09 h 2.91 V 106 h -2.91 c -0.05,0 -0.09,0.04 -0.09,0.09 v 6 c 0,0.05 0.04,0.09 0.09,0.09 h 2.91 V 118 h -2.91 c -0.05,0 -0.09,0.04 -0.09,0.09 v 6 c 0,0.05 0.04,0.09 0.09,0.09 h 2.91 V 130 h -2.91 c -0.05,0 -0.09,0.04 -0.09,0.09 v 6 c 0,0.05 0.04,0.09 0.09,0.09 h 2.91 V 142 h -2.91 c -0.05,0 -0.09,0.04 -0.09,0.09 v 6 c 0,0.05 0.04,0.09 0.09,0.09 h 2.91 V 154 h -2.91 c -0.05,0 -0.09,0.04 -0.09,0.09 v 6 c 0,0.05 0.04,0.09 0.09,0.09 h 2.91 V 166 h -2.91 c -0.05,0 -0.09,0.04 -0.09,0.09 v 6 c 0,0.05 0.04,0.09 0.09,0.09 h 2.91 V 178 h -2.91 c -0.05,0 -0.09,0.04 -0.09,0.09 v 6 c 0,0.05 0.04,0.09 0.09,0.09 h 2.91 V 190 h -2.91 c -0.05,0 -0.09,0.04 -0.09,0.09 v 6 c 0,0.05 0.04,0.09 0.09,0.09 h 2.91 V 202 h -2.91 c -0.05,0 -0.09,0.04 -0.09,0.09 v 6 c 0,0.05 0.04,0.09 0.09,0.09 h 2.91 V 214 h -2.91 c -0.05,0 -0.09,0.04 -0.09,0.09 v 6 c 0,0.05 0.04,0.09 0.09,0.09 h 2.91 V 226 h -2.91 c -0.05,0 -0.09,0.04 -0.09,0.09 v 6 c 0,0.05 0.04,0.09 0.09,0.09 h 2.91 V 238 h -2.91 c -0.05,0 -0.09,0.04 -0.09,0.09 v 6 c 0,0.05 0.04,0.09 0.09,0.09 h 2.91 V 250 h -2.91 c -0.05,0 -0.09,0.04 -0.09,0.09 v 6 c 0,0.05 0.04,0.09 0.09,0.09 h 2.91 V 262 h -2.91 c -0.05,0 -0.09,0.04 -0.09,0.09 v 6 c 0,0.05 0.04,0.09 0.09,0.09 h 2.91 V 274 h -2.91 c -0.05,0 -0.09,0.04 -0.09,0.09 v 6 c 0,0.05 0.04,0.09 0.09,0.09 h 2.91 V 286 h -2.91 c -0.05,0 -0.09,0.04 -0.09,0.09 v 6 c 0,0.05 0.04,0.09 0.09,0.09 h 2.91 V 298 h -2.91 c -0.05,0 -0.09,0.04 -0.09,0.09 v 6 c 0,0.05 0.04,0.09 0.09,0.09 h 2.91 V 310 h -2.91 c -0.05,0 -0.09,0.04 -0.09,0.09 v 6 c 0,0.05 0.04,0.09 0.09,0.09 h 2.91 V 322 h -2.91 c -0.05,0 -0.09,0.04 -0.09,0.09 v 6 c 0,0.05 0.04,0.09 0.09,0.09 h 2.91 V 334 h -2.91 c -0.05,0 -0.09,0.04 -0.09,0.09 v 6 c 0,0.05 0.04,0.09 0.09,0.09 h 2.91 V 346 h -2.91 c -0.05,0 -0.09,0.04 -0.09,0.09 v 6 c 0,0.05 0.04,0.09 0.09,0.09 h 2.91 V 358 h -2.91 c -0.05,0 -0.09,0.04 -0.09,0.09 v 6 c 0,0.05 0.04,0.09 0.09,0.09 h 2.91 V 370 h -2.91 c -0.05,0 -0.09,0.04 -0.09,0.09 v 6 c 0,0.05 0.04,0.09 0.09,0.09 h 2.91 V 382 h -2.91 c -0.05,0 -0.09,0.04 -0.09,0.09 v 6 c 0,0.05 0.04,0.09 0.09,0.09 h 2.91 V 394 h -2.91 c -0.05,0 -0.09,0.04 -0.09,0.09 v 6 c 0,0.05 0.04,0.09 0.09,0.09 h 2.91 V 406 h -2.91 c -0.05,0 -0.09,0.04 -0.09,0.09 v 6 c 0,0.05 0.04,0.09 0.09,0.09 h 2.91 V 418 h -2.91 c -0.05,0 -0.09,0.04 -0.09,0.09 v 6 c 0,0.05 0.04,0.09 0.09,0.09 h 2.91 V 430 h -2.91 c -0.05,0 -0.09,0.04 -0.09,0.09 v 6 c 0,0.05 0.04,0.09 0.09,0.09 h 2.91 V 442 h -2.91 c -0.05,0 -0.09,0.04 -0.09,0.09 v 6 c 0,0.05 0.04,0.09 0.09,0.09 h 2.91 V 454 h -2.91 c -0.05,0 -0.09,0.04 -0.09,0.09 v 6 c 0,0.05 0.04,0.09 0.09,0.09 h 2.91 V 466 h -2.91 c -0.05,0 -0.09,0.04 -0.09,0.09 v 6 c 0,0.05 0.04,0.09 0.09,0.09 h 2.91 V 478 h -2.91 c -0.05,0 -0.09,0.04 -0.09,0.09 v 6 c 0,0.05 0.04,0.09 0.09,0.09 h 2.91 V 490 h -2.91 c -0.05,0 -0.09,0.04 -0.09,0.09 v 6 c 0,0.05 0.04,0.09 0.09,0.09 h 2.91 V 502 h -2.91 c -0.05,0 -0.09,0.04 -0.09,0.09 v 6 c 0,0.05 0.04,0.09 0.09,0.09 h 2.91 V 514 h -2.91 c -0.05,0 -0.09,0.04 -0.09,0.09 v 6 c 0,0.05 0.04,0.09 0.09,0.09 h 2.91 V 526 h -2.91 c -0.05,0 -0.09,0.04 -0.09,0.09 v 6 c 0,0.05 0.04,0.09 0.09,0.09 h 2.91 V 538 h -2.91 c -0.05,0 -0.09,0.04 -0.09,0.09 v 6 c 0,0.05 0.04,0.09 0.09,0.09 h 2.91 V 550 h -2.91 c -0.05,0 -0.09,0.04 -0.09,0.09 v 6 c 0,0.05 0.04,0.09 0.09,0.09 h 2.91 V 562 h -2.91 c -0.05,0 -0.09,0.04 -0.09,0.09 v 6 c 0,0.05 0.04,0.09 0.09,0.09 h 2.91 V 574 h -2.91 c -0.05,0 -0.09,0.04 -0.09,0.09 v 6 c 0,0.05 0.04,0.09 0.09,0.09 h 2.91 V 586 h -2.91 c -0.05,0 -0.09,0.04 -0.09,0.09 v 6 c 0,0.05 0.04,0.09 0.09,0.09 h 2.91 V 598 h -2.91 c -0.05,0 -0.09,0.04 -0.09,0.09 v 6 c 0,0.05 0.04,0.09 0.09,0.09 h 2.91 V 610 h -2.91 c -0.05,0 -0.09,0.04 -0.09,0.09 v 6 c 0,0.05 0.04,0.09 0.09,0.09 h 2.91 V 622 h -2.91 c -0.05,0 -0.09,0.04 -0.09,0.09 v 6 c 0,0.05 0.04,0.09 0.09,0.09 h 2.91 V 634 h -2.91 c -0.05,0 -0.09,0.04 -0.09,0.09 v 6 c 0,0.05 0.04,0.09 0.09,0.09 h 2.91 V 646 h -2.91 c -0.05,0 -0.09,0.04 -0.09,0.09 v 6 c 0,0.05 0.04,0.09 0.09,0.09 h 2.91 V 658 h -2.91 c -0.05,0 -0.09,0.04 -0.09,0.09 v 6 c 0,0.05 0.04,0.09 0.09,0.09 h 2.91 v 8.91 c 0,0.05 0.04,0.09 0.09,0.09 z"
           stroke="#000000"
           stroke-width="0.18"
           id="path5537"
           style="stroke:#00ff00;stroke-opacity:1;stroke-width:0.127;stroke-miterlimit:4;stroke-dasharray:none" />
      </g>
      <path
         d="m 431.78692,28.67012 v -2.91 h 2.82 v 5.82 h -2.82 z"
         stroke="#0000ff"
         stroke-width="0.18"
         id="path5310"
         style="fill:none;stroke:#ff0000;stroke-width:0.127;stroke-linecap:round;stroke-linejoin:round;stroke-miterlimit:4;stroke-dasharray:none;stroke-opacity:1" />
      <path
         d="m 431.78692,40.67012 v -2.91 h 2.82 v 5.82 h -2.82 z"
         stroke="#0000ff"
         stroke-width="0.18"
         id="path5312"
         style="fill:none;stroke:#ff0000;stroke-width:0.127;stroke-linecap:round;stroke-linejoin:round;stroke-miterlimit:4;stroke-dasharray:none;stroke-opacity:1" />
      <path
         d="m 431.78692,52.67012 v -2.91 h 2.82 v 5.82 h -2.82 z"
         stroke="#0000ff"
         stroke-width="0.18"
         id="path5314"
         style="fill:none;stroke:#ff0000;stroke-width:0.127;stroke-linecap:round;stroke-linejoin:round;stroke-miterlimit:4;stroke-dasharray:none;stroke-opacity:1" />
      <path
         d="m 431.78692,64.67012 v -2.91 h 2.82 v 5.82 h -2.82 z"
         stroke="#0000ff"
         stroke-width="0.18"
         id="path5316"
         style="fill:none;stroke:#ff0000;stroke-width:0.127;stroke-linecap:round;stroke-linejoin:round;stroke-miterlimit:4;stroke-dasharray:none;stroke-opacity:1" />
      <path
         d="m 431.78692,76.67012 v -2.91 h 2.82 v 5.82 h -2.82 z"
         stroke="#0000ff"
         stroke-width="0.18"
         id="path5318"
         style="fill:none;stroke:#ff0000;stroke-width:0.127;stroke-linecap:round;stroke-linejoin:round;stroke-miterlimit:4;stroke-dasharray:none;stroke-opacity:1" />
      <path
         d="m 431.78692,88.67012 v -2.91 h 2.82 v 5.82 h -2.82 z"
         stroke="#0000ff"
         stroke-width="0.18"
         id="path5320"
         style="fill:none;stroke:#ff0000;stroke-width:0.127;stroke-linecap:round;stroke-linejoin:round;stroke-miterlimit:4;stroke-dasharray:none;stroke-opacity:1" />
      <path
         d="m 431.78692,100.67012 v -2.91 h 2.82 v 5.82 h -2.82 z"
         stroke="#0000ff"
         stroke-width="0.18"
         id="path5322"
         style="fill:none;stroke:#ff0000;stroke-width:0.127;stroke-linecap:round;stroke-linejoin:round;stroke-miterlimit:4;stroke-dasharray:none;stroke-opacity:1" />
      <path
         d="m 431.78692,112.67012 v -2.91 h 2.82 v 5.82 h -2.82 z"
         stroke="#0000ff"
         stroke-width="0.18"
         id="path5324"
         style="fill:none;stroke:#ff0000;stroke-width:0.127;stroke-linecap:round;stroke-linejoin:round;stroke-miterlimit:4;stroke-dasharray:none;stroke-opacity:1" />
      <path
         d="m 431.78692,124.67012 v -2.91 h 2.82 v 5.82 h -2.82 z"
         stroke="#0000ff"
         stroke-width="0.18"
         id="path5326"
         style="fill:none;stroke:#ff0000;stroke-width:0.127;stroke-linecap:round;stroke-linejoin:round;stroke-miterlimit:4;stroke-dasharray:none;stroke-opacity:1" />
      <path
         d="m 431.78692,136.67012 v -2.91 h 2.82 v 5.82 h -2.82 z"
         stroke="#0000ff"
         stroke-width="0.18"
         id="path5328"
         style="fill:none;stroke:#ff0000;stroke-width:0.127;stroke-linecap:round;stroke-linejoin:round;stroke-miterlimit:4;stroke-dasharray:none;stroke-opacity:1" />
      <path
         d="m 431.78692,148.67012 v -2.91 h 2.82 v 5.82 h -2.82 z"
         stroke="#0000ff"
         stroke-width="0.18"
         id="path5330"
         style="fill:none;stroke:#ff0000;stroke-width:0.127;stroke-linecap:round;stroke-linejoin:round;stroke-miterlimit:4;stroke-dasharray:none;stroke-opacity:1" />
      <path
         d="m 431.78692,160.67012 v -2.91 h 2.82 v 5.82 h -2.82 z"
         stroke="#0000ff"
         stroke-width="0.18"
         id="path5332"
         style="fill:none;stroke:#ff0000;stroke-width:0.127;stroke-linecap:round;stroke-linejoin:round;stroke-miterlimit:4;stroke-dasharray:none;stroke-opacity:1" />
      <path
         d="m 431.78692,172.67012 v -2.91 h 2.82 v 5.82 h -2.82 z"
         stroke="#0000ff"
         stroke-width="0.18"
         id="path5334"
         style="fill:none;stroke:#ff0000;stroke-width:0.127;stroke-linecap:round;stroke-linejoin:round;stroke-miterlimit:4;stroke-dasharray:none;stroke-opacity:1" />
      <path
         d="m 431.78692,184.67012 v -2.91 h 2.82 v 5.82 h -2.82 z"
         stroke="#0000ff"
         stroke-width="0.18"
         id="path5336"
         style="fill:none;stroke:#ff0000;stroke-width:0.127;stroke-linecap:round;stroke-linejoin:round;stroke-miterlimit:4;stroke-dasharray:none;stroke-opacity:1" />
      <path
         d="m 431.78692,196.67012 v -2.91 h 2.82 v 5.82 h -2.82 z"
         stroke="#0000ff"
         stroke-width="0.18"
         id="path5338"
         style="fill:none;stroke:#ff0000;stroke-width:0.127;stroke-linecap:round;stroke-linejoin:round;stroke-miterlimit:4;stroke-dasharray:none;stroke-opacity:1" />
      <path
         d="m 431.78692,208.67012 v -2.91 h 2.82 v 5.82 h -2.82 z"
         stroke="#0000ff"
         stroke-width="0.18"
         id="path5340"
         style="fill:none;stroke:#ff0000;stroke-width:0.127;stroke-linecap:round;stroke-linejoin:round;stroke-miterlimit:4;stroke-dasharray:none;stroke-opacity:1" />
      <path
         d="m 431.78692,220.67012 v -2.91 h 2.82 v 5.82 h -2.82 z"
         stroke="#0000ff"
         stroke-width="0.18"
         id="path5342"
         style="fill:none;stroke:#ff0000;stroke-width:0.127;stroke-linecap:round;stroke-linejoin:round;stroke-miterlimit:4;stroke-dasharray:none;stroke-opacity:1" />
      <path
         d="m 431.78692,232.67012 v -2.91 h 2.82 v 5.82 h -2.82 z"
         stroke="#0000ff"
         stroke-width="0.18"
         id="path5344"
         style="fill:none;stroke:#ff0000;stroke-width:0.127;stroke-linecap:round;stroke-linejoin:round;stroke-miterlimit:4;stroke-dasharray:none;stroke-opacity:1" />
      <path
         d="m 431.78692,244.67012 v -2.91 h 2.82 v 5.82 h -2.82 z"
         stroke="#0000ff"
         stroke-width="0.18"
         id="path5346"
         style="fill:none;stroke:#ff0000;stroke-width:0.127;stroke-linecap:round;stroke-linejoin:round;stroke-miterlimit:4;stroke-dasharray:none;stroke-opacity:1" />
      <path
         d="m 431.78692,256.67012 v -2.91 h 2.82 v 5.82 h -2.82 z"
         stroke="#0000ff"
         stroke-width="0.18"
         id="path5348"
         style="fill:none;stroke:#ff0000;stroke-width:0.127;stroke-linecap:round;stroke-linejoin:round;stroke-miterlimit:4;stroke-dasharray:none;stroke-opacity:1" />
      <path
         d="m 431.78692,268.67012 v -2.91 h 2.82 v 5.82 h -2.82 z"
         stroke="#0000ff"
         stroke-width="0.18"
         id="path5350"
         style="fill:none;stroke:#ff0000;stroke-width:0.127;stroke-linecap:round;stroke-linejoin:round;stroke-miterlimit:4;stroke-dasharray:none;stroke-opacity:1" />
      <path
         d="m 431.78692,280.67012 v -2.91 h 2.82 v 5.82 h -2.82 z"
         stroke="#0000ff"
         stroke-width="0.18"
         id="path5352"
         style="fill:none;stroke:#ff0000;stroke-width:0.127;stroke-linecap:round;stroke-linejoin:round;stroke-miterlimit:4;stroke-dasharray:none;stroke-opacity:1" />
      <path
         d="m 431.78692,292.67012 v -2.91 h 2.82 v 5.82 h -2.82 z"
         stroke="#0000ff"
         stroke-width="0.18"
         id="path5354"
         style="fill:none;stroke:#ff0000;stroke-width:0.127;stroke-linecap:round;stroke-linejoin:round;stroke-miterlimit:4;stroke-dasharray:none;stroke-opacity:1" />
      <path
         d="m 431.78692,304.67012 v -2.91 h 2.82 v 5.82 h -2.82 z"
         stroke="#0000ff"
         stroke-width="0.18"
         id="path5356"
         style="fill:none;stroke:#ff0000;stroke-width:0.127;stroke-linecap:round;stroke-linejoin:round;stroke-miterlimit:4;stroke-dasharray:none;stroke-opacity:1" />
      <path
         d="m 431.78692,316.67012 v -2.91 h 2.82 v 5.82 h -2.82 z"
         stroke="#0000ff"
         stroke-width="0.18"
         id="path5358"
         style="fill:none;stroke:#ff0000;stroke-width:0.127;stroke-linecap:round;stroke-linejoin:round;stroke-miterlimit:4;stroke-dasharray:none;stroke-opacity:1" />
      <path
         d="m 431.78692,328.67012 v -2.91 h 2.82 v 5.82 h -2.82 z"
         stroke="#0000ff"
         stroke-width="0.18"
         id="path5360"
         style="fill:none;stroke:#ff0000;stroke-width:0.127;stroke-linecap:round;stroke-linejoin:round;stroke-miterlimit:4;stroke-dasharray:none;stroke-opacity:1" />
      <path
         d="m 431.78692,340.67012 v -2.91 h 2.82 v 5.82 h -2.82 z"
         stroke="#0000ff"
         stroke-width="0.18"
         id="path5362"
         style="fill:none;stroke:#ff0000;stroke-width:0.127;stroke-linecap:round;stroke-linejoin:round;stroke-miterlimit:4;stroke-dasharray:none;stroke-opacity:1" />
      <path
         d="m 431.78692,352.67012 v -2.91 h 2.82 v 5.82 h -2.82 z"
         stroke="#0000ff"
         stroke-width="0.18"
         id="path5364"
         style="fill:none;stroke:#ff0000;stroke-width:0.127;stroke-linecap:round;stroke-linejoin:round;stroke-miterlimit:4;stroke-dasharray:none;stroke-opacity:1" />
      <path
         d="m 431.78692,364.67012 v -2.91 h 2.82 v 5.82 h -2.82 z"
         stroke="#0000ff"
         stroke-width="0.18"
         id="path5366"
         style="fill:none;stroke:#ff0000;stroke-width:0.127;stroke-linecap:round;stroke-linejoin:round;stroke-miterlimit:4;stroke-dasharray:none;stroke-opacity:1" />
      <path
         d="m 431.78692,376.67012 v -2.91 h 2.82 v 5.82 h -2.82 z"
         stroke="#0000ff"
         stroke-width="0.18"
         id="path5368"
         style="fill:none;stroke:#ff0000;stroke-width:0.127;stroke-linecap:round;stroke-linejoin:round;stroke-miterlimit:4;stroke-dasharray:none;stroke-opacity:1" />
      <path
         d="m 431.78692,388.67012 v -2.91 h 2.82 v 5.82 h -2.82 z"
         stroke="#0000ff"
         stroke-width="0.18"
         id="path5370"
         style="fill:none;stroke:#ff0000;stroke-width:0.127;stroke-linecap:round;stroke-linejoin:round;stroke-miterlimit:4;stroke-dasharray:none;stroke-opacity:1" />
      <path
         d="m 431.78692,400.67012 v -2.91 h 2.82 v 5.82 h -2.82 z"
         stroke="#0000ff"
         stroke-width="0.18"
         id="path5372"
         style="fill:none;stroke:#ff0000;stroke-width:0.127;stroke-linecap:round;stroke-linejoin:round;stroke-miterlimit:4;stroke-dasharray:none;stroke-opacity:1" />
      <path
         d="m 431.78692,412.67012 v -2.91 h 2.82 v 5.82 h -2.82 z"
         stroke="#0000ff"
         stroke-width="0.18"
         id="path5374"
         style="fill:none;stroke:#ff0000;stroke-width:0.127;stroke-linecap:round;stroke-linejoin:round;stroke-miterlimit:4;stroke-dasharray:none;stroke-opacity:1" />
      <path
         d="m 431.78692,424.67012 v -2.91 h 2.82 v 5.82 h -2.82 z"
         stroke="#0000ff"
         stroke-width="0.18"
         id="path5376"
         style="fill:none;stroke:#ff0000;stroke-width:0.127;stroke-linecap:round;stroke-linejoin:round;stroke-miterlimit:4;stroke-dasharray:none;stroke-opacity:1" />
      <path
         d="m 431.78692,436.67012 v -2.91 h 2.82 v 5.82 h -2.82 z"
         stroke="#0000ff"
         stroke-width="0.18"
         id="path5378"
         style="fill:none;stroke:#ff0000;stroke-width:0.127;stroke-linecap:round;stroke-linejoin:round;stroke-miterlimit:4;stroke-dasharray:none;stroke-opacity:1" />
      <path
         d="m 431.78692,448.67012 v -2.91 h 2.82 v 5.82 h -2.82 z"
         stroke="#0000ff"
         stroke-width="0.18"
         id="path5380"
         style="fill:none;stroke:#ff0000;stroke-width:0.127;stroke-linecap:round;stroke-linejoin:round;stroke-miterlimit:4;stroke-dasharray:none;stroke-opacity:1" />
      <path
         d="m 431.78692,460.67012 v -2.91 h 2.82 v 5.82 h -2.82 z"
         stroke="#0000ff"
         stroke-width="0.18"
         id="path5382"
         style="fill:none;stroke:#ff0000;stroke-width:0.127;stroke-linecap:round;stroke-linejoin:round;stroke-miterlimit:4;stroke-dasharray:none;stroke-opacity:1" />
      <path
         d="m 431.78692,472.67012 v -2.91 h 2.82 v 5.82 h -2.82 z"
         stroke="#0000ff"
         stroke-width="0.18"
         id="path5384"
         style="fill:none;stroke:#ff0000;stroke-width:0.127;stroke-linecap:round;stroke-linejoin:round;stroke-miterlimit:4;stroke-dasharray:none;stroke-opacity:1" />
      <path
         d="m 431.78692,484.67012 v -2.91 h 2.82 v 5.82 h -2.82 z"
         stroke="#0000ff"
         stroke-width="0.18"
         id="path5386"
         style="fill:none;stroke:#ff0000;stroke-width:0.127;stroke-linecap:round;stroke-linejoin:round;stroke-miterlimit:4;stroke-dasharray:none;stroke-opacity:1" />
      <path
         d="m 431.78692,496.67012 v -2.91 h 2.82 v 5.82 h -2.82 z"
         stroke="#0000ff"
         stroke-width="0.18"
         id="path5388"
         style="fill:none;stroke:#ff0000;stroke-width:0.127;stroke-linecap:round;stroke-linejoin:round;stroke-miterlimit:4;stroke-dasharray:none;stroke-opacity:1" />
      <path
         d="m 431.78692,508.67012 v -2.91 h 2.82 v 5.82 h -2.82 z"
         stroke="#0000ff"
         stroke-width="0.18"
         id="path5390"
         style="fill:none;stroke:#ff0000;stroke-width:0.127;stroke-linecap:round;stroke-linejoin:round;stroke-miterlimit:4;stroke-dasharray:none;stroke-opacity:1" />
      <path
         d="m 431.78692,520.67012 v -2.91 h 2.82 v 5.82 h -2.82 z"
         stroke="#0000ff"
         stroke-width="0.18"
         id="path5392"
         style="fill:none;stroke:#ff0000;stroke-width:0.127;stroke-linecap:round;stroke-linejoin:round;stroke-miterlimit:4;stroke-dasharray:none;stroke-opacity:1" />
      <path
         d="m 431.78692,532.67012 v -2.91 h 2.82 v 5.82 h -2.82 z"
         stroke="#0000ff"
         stroke-width="0.18"
         id="path5394"
         style="fill:none;stroke:#ff0000;stroke-width:0.127;stroke-linecap:round;stroke-linejoin:round;stroke-miterlimit:4;stroke-dasharray:none;stroke-opacity:1" />
      <path
         d="m 431.78692,544.67012 v -2.91 h 2.82 v 5.82 h -2.82 z"
         stroke="#0000ff"
         stroke-width="0.18"
         id="path5396"
         style="fill:none;stroke:#ff0000;stroke-width:0.127;stroke-linecap:round;stroke-linejoin:round;stroke-miterlimit:4;stroke-dasharray:none;stroke-opacity:1" />
      <path
         d="m 431.78692,556.67012 v -2.91 h 2.82 v 5.82 h -2.82 z"
         stroke="#0000ff"
         stroke-width="0.18"
         id="path5398"
         style="fill:none;stroke:#ff0000;stroke-width:0.127;stroke-linecap:round;stroke-linejoin:round;stroke-miterlimit:4;stroke-dasharray:none;stroke-opacity:1" />
      <path
         d="m 431.78692,568.67012 v -2.91 h 2.82 v 5.82 h -2.82 z"
         stroke="#0000ff"
         stroke-width="0.18"
         id="path5400"
         style="fill:none;stroke:#ff0000;stroke-width:0.127;stroke-linecap:round;stroke-linejoin:round;stroke-miterlimit:4;stroke-dasharray:none;stroke-opacity:1" />
      <path
         d="m 431.78692,580.67012 v -2.91 h 2.82 v 5.82 h -2.82 z"
         stroke="#0000ff"
         stroke-width="0.18"
         id="path5402"
         style="fill:none;stroke:#ff0000;stroke-width:0.127;stroke-linecap:round;stroke-linejoin:round;stroke-miterlimit:4;stroke-dasharray:none;stroke-opacity:1" />
      <path
         d="m 431.78692,592.67012 v -2.91 h 2.82 v 5.82 h -2.82 z"
         stroke="#0000ff"
         stroke-width="0.18"
         id="path5404"
         style="fill:none;stroke:#ff0000;stroke-width:0.127;stroke-linecap:round;stroke-linejoin:round;stroke-miterlimit:4;stroke-dasharray:none;stroke-opacity:1" />
      <path
         d="m 431.78692,604.67012 v -2.91 h 2.82 v 5.82 h -2.82 z"
         stroke="#0000ff"
         stroke-width="0.18"
         id="path5406"
         style="fill:none;stroke:#ff0000;stroke-width:0.127;stroke-linecap:round;stroke-linejoin:round;stroke-miterlimit:4;stroke-dasharray:none;stroke-opacity:1" />
      <path
         d="m 431.78692,616.67012 v -2.91 h 2.82 v 5.82 h -2.82 z"
         stroke="#0000ff"
         stroke-width="0.18"
         id="path5408"
         style="fill:none;stroke:#ff0000;stroke-width:0.127;stroke-linecap:round;stroke-linejoin:round;stroke-miterlimit:4;stroke-dasharray:none;stroke-opacity:1" />
      <path
         d="m 431.78692,628.67012 v -2.91 h 2.82 v 5.82 h -2.82 z"
         stroke="#0000ff"
         stroke-width="0.18"
         id="path5410"
         style="fill:none;stroke:#ff0000;stroke-width:0.127;stroke-linecap:round;stroke-linejoin:round;stroke-miterlimit:4;stroke-dasharray:none;stroke-opacity:1" />
      <path
         d="m 431.78692,640.67012 v -2.91 h 2.82 v 5.82 h -2.82 z"
         stroke="#0000ff"
         stroke-width="0.18"
         id="path5412"
         style="fill:none;stroke:#ff0000;stroke-width:0.127;stroke-linecap:round;stroke-linejoin:round;stroke-miterlimit:4;stroke-dasharray:none;stroke-opacity:1" />
      <path
         d="m 431.78692,652.67012 v -2.91 h 2.82 v 5.82 h -2.82 z"
         stroke="#0000ff"
         stroke-width="0.18"
         id="path5414"
         style="fill:none;stroke:#ff0000;stroke-width:0.127;stroke-linecap:round;stroke-linejoin:round;stroke-miterlimit:4;stroke-dasharray:none;stroke-opacity:1" />
      <path
         d="m 431.78692,664.67012 v -2.91 h 2.82 v 5.82 h -2.82 z"
         stroke="#0000ff"
         stroke-width="0.18"
         id="path5416"
         style="fill:none;stroke:#ff0000;stroke-width:0.127;stroke-linecap:round;stroke-linejoin:round;stroke-miterlimit:4;stroke-dasharray:none;stroke-opacity:1" />
      <path
         d="m 400.80692,16.67012 v 9 c 0,0.05 0.04,0.09 0.09,0.09 h 2.91 v 5.82 h -2.91 c -0.05,0 -0.09,0.04 -0.09,0.09 v 6 c 0,0.05 0.04,0.09 0.09,0.09 h 2.91 v 5.82 h -2.91 c -0.05,0 -0.09,0.04 -0.09,0.09 v 6 c 0,0.05 0.04,0.09 0.09,0.09 h 2.91 v 5.82 h -2.91 c -0.05,0 -0.09,0.04 -0.09,0.09 v 6 c 0,0.05 0.04,0.09 0.09,0.09 h 2.91 v 5.82 h -2.91 c -0.05,0 -0.09,0.04 -0.09,0.09 v 6 c 0,0.05 0.04,0.09 0.09,0.09 h 2.91 v 5.82 h -2.91 c -0.05,0 -0.09,0.04 -0.09,0.09 v 6 c 0,0.05 0.04,0.09 0.09,0.09 h 2.91 v 5.82 h -2.91 c -0.05,0 -0.09,0.04 -0.09,0.09 v 6 c 0,0.05 0.04,0.09 0.09,0.09 h 2.91 v 5.82 h -2.91 c -0.05,0 -0.09,0.04 -0.09,0.09 v 6 c 0,0.05 0.04,0.09 0.09,0.09 h 2.91 v 5.82 h -2.91 c -0.05,0 -0.09,0.04 -0.09,0.09 v 6 c 0,0.05 0.04,0.09 0.09,0.09 h 2.91 v 5.82 h -2.91 c -0.05,0 -0.09,0.04 -0.09,0.09 v 6 c 0,0.05 0.04,0.09 0.09,0.09 h 2.91 v 5.82 h -2.91 c -0.05,0 -0.09,0.04 -0.09,0.09 v 6 c 0,0.05 0.04,0.09 0.09,0.09 h 2.91 v 5.82 h -2.91 c -0.05,0 -0.09,0.04 -0.09,0.09 v 6 c 0,0.05 0.04,0.09 0.09,0.09 h 2.91 v 5.82 h -2.91 c -0.05,0 -0.09,0.04 -0.09,0.09 v 6 c 0,0.05 0.04,0.09 0.09,0.09 h 2.91 v 5.82 h -2.91 c -0.05,0 -0.09,0.04 -0.09,0.09 v 6 c 0,0.05 0.04,0.09 0.09,0.09 h 2.91 v 5.82 h -2.91 c -0.05,0 -0.09,0.04 -0.09,0.09 v 6 c 0,0.05 0.04,0.09 0.09,0.09 h 2.91 v 5.82 h -2.91 c -0.05,0 -0.09,0.04 -0.09,0.09 v 6 c 0,0.05 0.04,0.09 0.09,0.09 h 2.91 v 5.82 h -2.91 c -0.05,0 -0.09,0.04 -0.09,0.09 v 6 c 0,0.05 0.04,0.09 0.09,0.09 h 2.91 v 5.82 h -2.91 c -0.05,0 -0.09,0.04 -0.09,0.09 v 6 c 0,0.05 0.04,0.09 0.09,0.09 h 2.91 v 5.82 h -2.91 c -0.05,0 -0.09,0.04 -0.09,0.09 v 6 c 0,0.05 0.04,0.09 0.09,0.09 h 2.91 v 5.82 h -2.91 c -0.05,0 -0.09,0.04 -0.09,0.09 v 6 c 0,0.05 0.04,0.09 0.09,0.09 h 2.91 v 5.82 h -2.91 c -0.05,0 -0.09,0.04 -0.09,0.09 v 6 c 0,0.05 0.04,0.09 0.09,0.09 h 2.91 v 5.82 h -2.91 c -0.05,0 -0.09,0.04 -0.09,0.09 v 6 c 0,0.05 0.04,0.09 0.09,0.09 h 2.91 v 5.82 h -2.91 c -0.05,0 -0.09,0.04 -0.09,0.09 v 6 c 0,0.05 0.04,0.09 0.09,0.09 h 2.91 v 5.82 h -2.91 c -0.05,0 -0.09,0.04 -0.09,0.09 v 6 c 0,0.05 0.04,0.09 0.09,0.09 h 2.91 v 5.82 h -2.91 c -0.05,0 -0.09,0.04 -0.09,0.09 v 6 c 0,0.05 0.04,0.09 0.09,0.09 h 2.91 v 5.82 h -2.91 c -0.05,0 -0.09,0.04 -0.09,0.09 v 6 c 0,0.05 0.04,0.09 0.09,0.09 h 2.91 v 5.82 h -2.91 c -0.05,0 -0.09,0.04 -0.09,0.09 v 6 c 0,0.05 0.04,0.09 0.09,0.09 h 2.91 v 5.82 h -2.91 c -0.05,0 -0.09,0.04 -0.09,0.09 v 6 c 0,0.05 0.04,0.09 0.09,0.09 h 2.91 v 5.82 h -2.91 c -0.05,0 -0.09,0.04 -0.09,0.09 v 6 c 0,0.05 0.04,0.09 0.09,0.09 h 2.91 v 5.82 h -2.91 c -0.05,0 -0.09,0.04 -0.09,0.09 v 6 c 0,0.05 0.04,0.09 0.09,0.09 h 2.91 v 5.82 h -2.91 c -0.05,0 -0.09,0.04 -0.09,0.09 v 6 c 0,0.05 0.04,0.09 0.09,0.09 h 2.91 v 5.82 h -2.91 c -0.05,0 -0.09,0.04 -0.09,0.09 v 6 c 0,0.05 0.04,0.09 0.09,0.09 h 2.91 v 5.82 h -2.91 c -0.05,0 -0.09,0.04 -0.09,0.09 v 6 c 0,0.05 0.04,0.09 0.09,0.09 h 2.91 v 5.82 h -2.91 c -0.05,0 -0.09,0.04 -0.09,0.09 v 6 c 0,0.05 0.04,0.09 0.09,0.09 h 2.91 v 5.82 h -2.91 c -0.05,0 -0.09,0.04 -0.09,0.09 v 6 c 0,0.05 0.04,0.09 0.09,0.09 h 2.91 v 5.82 h -2.91 c -0.05,0 -0.09,0.04 -0.09,0.09 v 6 c 0,0.05 0.04,0.09 0.09,0.09 h 2.91 v 5.82 h -2.91 c -0.05,0 -0.09,0.04 -0.09,0.09 v 6 c 0,0.05 0.04,0.09 0.09,0.09 h 2.91 v 5.82 h -2.91 c -0.05,0 -0.09,0.04 -0.09,0.09 v 6 c 0,0.05 0.04,0.09 0.09,0.09 h 2.91 v 5.82 h -2.91 c -0.05,0 -0.09,0.04 -0.09,0.09 v 6 c 0,0.05 0.04,0.09 0.09,0.09 h 2.91 v 5.82 h -2.91 c -0.05,0 -0.09,0.04 -0.09,0.09 v 6 c 0,0.05 0.04,0.09 0.09,0.09 h 2.91 v 5.82 h -2.91 c -0.05,0 -0.09,0.04 -0.09,0.09 v 6 c 0,0.05 0.04,0.09 0.09,0.09 h 2.91 v 5.82 h -2.91 c -0.05,0 -0.09,0.04 -0.09,0.09 v 6 c 0,0.05 0.04,0.09 0.09,0.09 h 2.91 v 5.82 h -2.91 c -0.05,0 -0.09,0.04 -0.09,0.09 v 6 c 0,0.05 0.04,0.09 0.09,0.09 h 2.91 v 5.82 h -2.91 c -0.05,0 -0.09,0.04 -0.09,0.09 v 6 c 0,0.05 0.04,0.09 0.09,0.09 h 2.91 v 5.82 h -2.91 c -0.05,0 -0.09,0.04 -0.09,0.09 v 6 c 0,0.05 0.04,0.09 0.09,0.09 h 2.91 v 5.82 h -2.91 c -0.05,0 -0.09,0.04 -0.09,0.09 v 6 c 0,0.05 0.04,0.09 0.09,0.09 h 2.91 v 5.82 h -2.91 c -0.05,0 -0.09,0.04 -0.09,0.09 v 6 c 0,0.05 0.04,0.09 0.09,0.09 h 2.91 v 5.82 h -2.91 c -0.05,0 -0.09,0.04 -0.09,0.09 v 6 c 0,0.05 0.04,0.09 0.09,0.09 h 2.91 v 5.82 h -2.91 c -0.05,0 -0.09,0.04 -0.09,0.09 v 6 c 0,0.05 0.04,0.09 0.09,0.09 h 2.91 v 5.82 h -2.91 c -0.05,0 -0.09,0.04 -0.09,0.09 v 6 c 0,0.05 0.04,0.09 0.09,0.09 h 2.91 v 5.82 h -2.91 c -0.05,0 -0.09,0.04 -0.09,0.09 v 6 c 0,0.05 0.04,0.09 0.09,0.09 h 2.91 v 5.82 h -2.91 c -0.05,0 -0.09,0.04 -0.09,0.09 v 6 c 0,0.05 0.04,0.09 0.09,0.09 h 2.91 v 5.82 h -2.91 c -0.05,0 -0.09,0.04 -0.09,0.09 v 6 c 0,0.05 0.04,0.09 0.09,0.09 h 2.91 v 5.82 h -2.91 c -0.05,0 -0.09,0.04 -0.09,0.09 v 6 c 0,0.05 0.04,0.09 0.09,0.09 h 2.91 v 5.82 h -2.91 c -0.05,0 -0.09,0.04 -0.09,0.09 v 9 c 0,0.05 0.04,0.09 0.09,0.09 h 3 10.91 v 2.91 c 0,0.05 0.04,0.09 0.09,0.09 h 6 c 0.05,0 0.09,-0.04 0.09,-0.09 v -2.91 h 5.82 v 2.91 c 0,0.05 0.04,0.09 0.09,0.09 h 6 c 0.05,0 0.09,-0.04 0.09,-0.09 v -2.91 h 10.91 3 c 0.05,0 0.09,-0.04 0.09,-0.09 v -9 c 0,-0.05 -0.04,-0.09 -0.09,-0.09 h -2.91 v -5.82 h 2.91 c 0.05,0 0.09,-0.04 0.09,-0.09 v -6 c 0,-0.05 -0.04,-0.09 -0.09,-0.09 h -2.91 v -5.82 h 2.91 c 0.05,0 0.09,-0.04 0.09,-0.09 v -6 c 0,-0.05 -0.04,-0.09 -0.09,-0.09 h -2.91 v -5.82 h 2.91 c 0.05,0 0.09,-0.04 0.09,-0.09 v -6 c 0,-0.05 -0.04,-0.09 -0.09,-0.09 h -2.91 v -5.82 h 2.91 c 0.05,0 0.09,-0.04 0.09,-0.09 v -6 c 0,-0.05 -0.04,-0.09 -0.09,-0.09 h -2.91 v -5.82 h 2.91 c 0.05,0 0.09,-0.04 0.09,-0.09 v -6 c 0,-0.05 -0.04,-0.09 -0.09,-0.09 h -2.91 v -5.82 h 2.91 c 0.05,0 0.09,-0.04 0.09,-0.09 v -6 c 0,-0.05 -0.04,-0.09 -0.09,-0.09 h -2.91 v -5.82 h 2.91 c 0.05,0 0.09,-0.04 0.09,-0.09 v -6 c 0,-0.05 -0.04,-0.09 -0.09,-0.09 h -2.91 v -5.82 h 2.91 c 0.05,0 0.09,-0.04 0.09,-0.09 v -6 c 0,-0.05 -0.04,-0.09 -0.09,-0.09 h -2.91 v -5.82 h 2.91 c 0.05,0 0.09,-0.04 0.09,-0.09 v -6 c 0,-0.05 -0.04,-0.09 -0.09,-0.09 h -2.91 v -5.82 h 2.91 c 0.05,0 0.09,-0.04 0.09,-0.09 v -6 c 0,-0.05 -0.04,-0.09 -0.09,-0.09 h -2.91 v -5.82 h 2.91 c 0.05,0 0.09,-0.04 0.09,-0.09 v -6 c 0,-0.05 -0.04,-0.09 -0.09,-0.09 h -2.91 v -5.82 h 2.91 c 0.05,0 0.09,-0.04 0.09,-0.09 v -6 c 0,-0.05 -0.04,-0.09 -0.09,-0.09 h -2.91 v -5.82 h 2.91 c 0.05,0 0.09,-0.04 0.09,-0.09 v -6 c 0,-0.05 -0.04,-0.09 -0.09,-0.09 h -2.91 v -5.82 h 2.91 c 0.05,0 0.09,-0.04 0.09,-0.09 v -6 c 0,-0.05 -0.04,-0.09 -0.09,-0.09 h -2.91 v -5.82 h 2.91 c 0.05,0 0.09,-0.04 0.09,-0.09 v -6 c 0,-0.05 -0.04,-0.09 -0.09,-0.09 h -2.91 v -5.82 h 2.91 c 0.05,0 0.09,-0.04 0.09,-0.09 v -6 c 0,-0.05 -0.04,-0.09 -0.09,-0.09 h -2.91 v -5.82 h 2.91 c 0.05,0 0.09,-0.04 0.09,-0.09 v -6 c 0,-0.05 -0.04,-0.09 -0.09,-0.09 h -2.91 v -5.82 h 2.91 c 0.05,0 0.09,-0.04 0.09,-0.09 v -6 c 0,-0.05 -0.04,-0.09 -0.09,-0.09 h -2.91 v -5.82 h 2.91 c 0.05,0 0.09,-0.04 0.09,-0.09 v -6 c 0,-0.05 -0.04,-0.09 -0.09,-0.09 h -2.91 v -5.82 h 2.91 c 0.05,0 0.09,-0.04 0.09,-0.09 v -6 c 0,-0.05 -0.04,-0.09 -0.09,-0.09 h -2.91 v -5.82 h 2.91 c 0.05,0 0.09,-0.04 0.09,-0.09 v -6 c 0,-0.05 -0.04,-0.09 -0.09,-0.09 h -2.91 v -5.82 h 2.91 c 0.05,0 0.09,-0.04 0.09,-0.09 v -6 c 0,-0.05 -0.04,-0.09 -0.09,-0.09 h -2.91 v -5.82 h 2.91 c 0.05,0 0.09,-0.04 0.09,-0.09 v -6 c 0,-0.05 -0.04,-0.09 -0.09,-0.09 h -2.91 v -5.82 h 2.91 c 0.05,0 0.09,-0.04 0.09,-0.09 v -6 c 0,-0.05 -0.04,-0.09 -0.09,-0.09 h -2.91 v -5.82 h 2.91 c 0.05,0 0.09,-0.04 0.09,-0.09 v -6 c 0,-0.05 -0.04,-0.09 -0.09,-0.09 h -2.91 v -5.82 h 2.91 c 0.05,0 0.09,-0.04 0.09,-0.09 v -6 c 0,-0.05 -0.04,-0.09 -0.09,-0.09 h -2.91 v -5.82 h 2.91 c 0.05,0 0.09,-0.04 0.09,-0.09 v -6 c 0,-0.05 -0.04,-0.09 -0.09,-0.09 h -2.91 v -5.82 h 2.91 c 0.05,0 0.09,-0.04 0.09,-0.09 v -6 c 0,-0.05 -0.04,-0.09 -0.09,-0.09 h -2.91 v -5.82 h 2.91 c 0.05,0 0.09,-0.04 0.09,-0.09 v -6 c 0,-0.05 -0.04,-0.09 -0.09,-0.09 h -2.91 v -5.82 h 2.91 c 0.05,0 0.09,-0.04 0.09,-0.09 v -6 c 0,-0.05 -0.04,-0.09 -0.09,-0.09 h -2.91 v -5.82 h 2.91 c 0.05,0 0.09,-0.04 0.09,-0.09 v -6 c 0,-0.05 -0.04,-0.09 -0.09,-0.09 h -2.91 v -5.82 h 2.91 c 0.05,0 0.09,-0.04 0.09,-0.09 v -6 c 0,-0.05 -0.04,-0.09 -0.09,-0.09 h -2.91 v -5.82 h 2.91 c 0.05,0 0.09,-0.04 0.09,-0.09 v -6 c 0,-0.05 -0.04,-0.09 -0.09,-0.09 h -2.91 v -5.82 h 2.91 c 0.05,0 0.09,-0.04 0.09,-0.09 v -6 c 0,-0.05 -0.04,-0.09 -0.09,-0.09 h -2.91 v -5.82 h 2.91 c 0.05,0 0.09,-0.04 0.09,-0.09 v -6 c 0,-0.05 -0.04,-0.09 -0.09,-0.09 h -2.91 v -5.82 h 2.91 c 0.05,0 0.09,-0.04 0.09,-0.09 v -6 c 0,-0.05 -0.04,-0.09 -0.09,-0.09 h -2.91 v -5.82 h 2.91 c 0.05,0 0.09,-0.04 0.09,-0.09 v -6 c 0,-0.05 -0.04,-0.09 -0.09,-0.09 h -2.91 v -5.82 h 2.91 c 0.05,0 0.09,-0.04 0.09,-0.09 v -6 c 0,-0.05 -0.04,-0.09 -0.09,-0.09 h -2.91 v -5.82 h 2.91 c 0.05,0 0.09,-0.04 0.09,-0.09 v -6 c 0,-0.05 -0.04,-0.09 -0.09,-0.09 h -2.91 v -5.82 h 2.91 c 0.05,0 0.09,-0.04 0.09,-0.09 v -6 c 0,-0.05 -0.04,-0.09 -0.09,-0.09 h -2.91 v -5.82 h 2.91 c 0.05,0 0.09,-0.04 0.09,-0.09 v -6 c 0,-0.05 -0.04,-0.09 -0.09,-0.09 h -2.91 v -5.82 h 2.91 c 0.05,0 0.09,-0.04 0.09,-0.09 v -6 c 0,-0.05 -0.04,-0.09 -0.09,-0.09 h -2.91 v -5.82 h 2.91 c 0.05,0 0.09,-0.04 0.09,-0.09 v -6 c 0,-0.05 -0.04,-0.09 -0.09,-0.09 h -2.91 v -5.82 h 2.91 c 0.05,0 0.09,-0.04 0.09,-0.09 v -6 c 0,-0.05 -0.04,-0.09 -0.09,-0.09 h -2.91 v -5.82 h 2.91 c 0.05,0 0.09,-0.04 0.09,-0.09 v -6 c 0,-0.05 -0.04,-0.09 -0.09,-0.09 h -2.91 v -5.82 h 2.91 c 0.05,0 0.09,-0.04 0.09,-0.09 v -6 c 0,-0.05 -0.04,-0.09 -0.09,-0.09 h -2.91 v -5.82 h 2.91 c 0.05,0 0.09,-0.04 0.09,-0.09 v -6 c 0,-0.05 -0.04,-0.09 -0.09,-0.09 h -2.91 v -5.82 h 2.91 c 0.05,0 0.09,-0.04 0.09,-0.09 v -6 c 0,-0.05 -0.04,-0.09 -0.09,-0.09 h -2.91 v -5.82 h 2.91 c 0.05,0 0.09,-0.04 0.09,-0.09 v -6 c 0,-0.05 -0.04,-0.09 -0.09,-0.09 h -2.91 v -5.82 h 2.91 c 0.05,0 0.09,-0.04 0.09,-0.09 v -6 c 0,-0.05 -0.04,-0.09 -0.09,-0.09 h -2.91 v -5.82 h 2.91 c 0.05,0 0.09,-0.04 0.09,-0.09 v -6 c 0,-0.05 -0.04,-0.09 -0.09,-0.09 h -2.91 v -5.82 h 2.91 c 0.05,0 0.09,-0.04 0.09,-0.09 v -6 c 0,-0.05 -0.04,-0.09 -0.09,-0.09 h -2.91 v -5.82 h 2.91 c 0.05,0 0.09,-0.04 0.09,-0.09 v -6 c 0,-0.05 -0.04,-0.09 -0.09,-0.09 h -2.91 v -5.82 h 2.91 c 0.05,0 0.09,-0.04 0.09,-0.09 v -9 c 0,-0.05 -0.04,-0.09 -0.09,-0.09 h -3 -10.91 v -2.91 c 0,-0.05 -0.04,-0.09 -0.09,-0.09 h -6 c -0.05,0 -0.09,0.04 -0.09,0.09 v 2.91 h -5.82 v -2.91 c 0,-0.05 -0.04,-0.09 -0.09,-0.09 h -6 c -0.05,0 -0.09,0.04 -0.09,0.09 v 2.91 h -10.91 -3 c -0.05,0 -0.09,0.04 -0.09,0.09 z"
         stroke="#000000"
         stroke-width="0.18"
         id="path5418"
         style="fill:none;stroke:#00ff00;stroke-width:0.127;stroke-linecap:round;stroke-linejoin:round;stroke-miterlimit:4;stroke-dasharray:none;stroke-opacity:1" />
    </g>
  </g>
</svg>
